<svg version="1.1" xmlns="http://www.w3.org/2000/svg" xmlns:xlink="http://www.w3.org/1999/xlink" width="79.5" height="83.75967" viewBox="0,0,79.5,83.75967"><g transform="translate(-140.2143,-280.28572)"><g stroke-miterlimit="10"><path d="M145.50002,341.54368v-34.58227l17.1067,-17.05888h34.54812l17.20233,16.90518v34.42857l-17.20233,17.52339h-34.42857z" fill="#272828" stroke="#000000" stroke-width="0"/><path d="M140.2143,341.47396v-34.42857h5.28571v34.42857z" fill="#272828" stroke="#000000" stroke-width="0"/><path d="M214.35716,341.3311v-34.42857h5.28571v34.42857z" fill="#272828" stroke="#000000" stroke-width="0"/><path d="M197.07145,289.90252h-34.42857v-5.28571h34.42857z" fill="#272828" stroke="#000000" stroke-width="0"/><path d="M197.07145,364.04539h-34.42856v-5.28572h34.42856z" fill="#272828" stroke="#000000" stroke-width="0"/><path d="M162.60176,289.89302l-17.15236,17.15236l-2.63335,-2.63335l17.15236,-17.15236z" fill="#272828" stroke="#000000" stroke-width="0"/><path d="M214.39698,307.04539l-17.15237,-17.15237l2.63335,-2.63335l17.15237,17.15237z" fill="#272828" stroke="#000000" stroke-width="0"/><path d="M160.11127,361.3311l-17.15237,-17.15237l2.63335,-2.63335l17.15237,17.15237z" fill="#272828" stroke="#000000" stroke-width="0"/><path d="M216.88748,343.89302l-17.15237,17.15236l-2.63335,-2.63335l17.15236,-17.15237z" fill="#272828" stroke="#000000" stroke-width="0"/><path d="M145.57144,337.2126v-34.58227l17.1067,-17.05888h34.54812l17.20233,16.90518v34.42857l-17.20233,17.52339h-34.42857z" fill="#216394" stroke="#000000" stroke-width="0"/><path d="" fill="#31648a" stroke="#000000" stroke-width="0"/><path d="M140.28572,337.14288v-34.42857h5.28571v34.42857z" fill="#112063" stroke="#000000" stroke-width="0"/><path d="M214.42858,337.00001v-34.42857h5.28571v34.42857z" fill="#112063" stroke="#000000" stroke-width="0"/><path d="M197.14287,285.57145h-34.42857v-5.28571h34.42857z" fill="#112063" stroke="#000000" stroke-width="0"/><path d="M197.14287,359.71431h-34.42856v-5.28572h34.42856z" fill="#112063" stroke="#000000" stroke-width="0"/><path d="M162.67317,285.56192l-17.15236,17.15236l-2.63335,-2.63335l17.15236,-17.15236z" fill="#232d5b" stroke="#000000" stroke-width="0"/><path d="M214.4684,302.7143l-17.15237,-17.15237l2.63335,-2.63335l17.15237,17.15237z" fill="#232d5b" stroke="#000000" stroke-width="0"/><path d="M160.18269,357.00001l-17.15237,-17.15237l2.63335,-2.63335l17.15237,17.15237z" fill="#232d5b" stroke="#000000" stroke-width="0"/><path d="M217.10175,339.7048l-17.15237,17.15236l-2.63335,-2.63335l17.15236,-17.15237z" fill="#232d5b" stroke="#000000" stroke-width="0"/><path d="M145.62144,329.05625v-22.14286h68.71429v22.14286z" fill="#92a1e7" stroke="#000000" stroke-width="0"/><path d="M179.90716,329.05625v-16.32467h34.42857v16.32467z" fill="#ccd0e4" stroke="#000000" stroke-width="0"/><path d="M145.62144,323.23805v-16.32467h34.42857v16.32467z" fill="#ccd0e4" stroke="#000000" stroke-width="0"/><path d="M167.95455,285.64286h24.09091v68.71428h-24.09091z" fill="#3f225d" stroke="#000000" stroke-width="0"/><path d="M168.92858,285.64286h22.14286v68.71428h-22.14286z" fill="#7d8edd" stroke="#000000" stroke-width="0"/><path d="M151.7143,334.14147c0,-10.00417 0,-22.62712 0,-28.41199c0,-5.93659 8.10528,-14.01518 14.05446,-14.01518c5.78525,0 18.39195,0 28.38393,0c7.87953,0 14.13304,7.99293 14.13304,13.8889c0,5.74204 0,18.2773 0,28.28571c0,8.00706 -6.25567,14.39681 -14.13304,14.39681c-9.95703,0 -22.50506,0 -28.28571,0c-5.98061,0 -14.15268,-6.25858 -14.15268,-14.14426z" fill="#244f6f" stroke="#000000" stroke-width="0"/><path d="M197.14287,359.71431h-34.42856v-1.46219h34.42856z" fill="#0f1637" stroke="#000000" stroke-width="0"/><path d="M197.14287,281.74791h-34.42856v-1.46219h34.42856z" fill="#0f1637" stroke="#000000" stroke-width="0"/><path d="M219.7143,302.57145v34.42856h-1.46219v-34.42856z" fill="#0f1637" stroke="#000000" stroke-width="0"/><path d="M141.74791,302.7143v34.42856h-1.46218v-34.42856z" fill="#0f1637" stroke="#000000" stroke-width="0"/><path d="M160.18269,357.00001l-17.15237,-17.15237l1.03392,-1.03392l17.15237,17.15237z" fill="#2f5459" stroke="#000000" stroke-width="0"/><path d="M216.06783,301.11488l-17.15237,-17.15236l1.03392,-1.03392l17.15237,17.15236z" fill="#2f5459" stroke="#000000" stroke-width="0"/><path d="M142.88745,300.08095l17.15236,-17.15237l1.03392,1.03392l-17.15237,17.15237z" fill="#2f5459" stroke="#000000" stroke-width="0"/><path d="M198.91547,355.82324l17.15237,-17.15237l1.03392,1.03392l-17.15236,17.15236z" fill="#2f5459" stroke="#000000" stroke-width="0"/><path d="M151.72955,317.77528c0.50744,-6.63314 13.54586,-11.04438 29.1221,-9.85278c15.57626,1.19159 27.79194,7.53479 27.2845,14.16793c-0.50744,6.63314 -13.54586,11.04438 -29.1221,9.85278c-15.57626,-1.19159 -27.79194,-7.53479 -27.2845,-14.16793z" fill="#14476e" stroke="#000000" stroke-width="0"/><path d="M161.51574,298.46447c5.04915,-4.33152 17.38792,1.7688 27.55941,13.62546c10.17149,11.85666 14.32397,24.97978 9.27482,29.3113c-5.04915,4.33152 -17.38792,-1.76881 -27.55941,-13.62547c-10.17149,-11.85666 -14.32397,-24.97978 -9.27481,-29.3113z" fill="#14476e" stroke="#000000" stroke-width="0"/><path d="M182.09042,291.72955c6.63314,0.50744 11.04439,13.54585 9.85279,29.1221c-1.19159,15.57626 -7.5348,27.79194 -14.16794,27.2845c-6.63314,-0.50744 -11.04438,-13.54585 -9.85278,-29.1221c1.19159,-15.57626 7.5348,-27.79194 14.16793,-27.2845z" fill="#14476e" stroke="#000000" stroke-width="0"/><path d="M201.40123,301.51574c4.33152,5.04915 -1.7688,17.38792 -13.62546,27.55941c-11.85666,10.17149 -24.97979,14.32396 -29.3113,9.27481c-4.33152,-5.04915 1.7688,-17.38792 13.62546,-27.55941c11.85666,-10.17149 24.97978,-14.32396 29.3113,-9.27481z" fill="#14476e" stroke="#000000" stroke-width="0"/><path d="M189.60771,321.37028c-4.60417,2.62614 -10.9838,6.26499 -13.49888,7.69955c-2.04916,1.16881 -4.59891,0.4917 -4.59891,-2.45231c0,-5.17454 0,-12.8593 0,-15.89251c0,-2.45638 2.68843,-4.053 4.8124,-2.84152c2.53285,1.44469 8.82539,5.03387 13.36118,7.62102c2.91474,1.66252 2.88,4.17982 -0.07579,5.86576z" fill="#8ec0e6" stroke="#478fc6" stroke-width="2.5"/></g></g></svg>