<svg version="1.1" xmlns="http://www.w3.org/2000/svg" xmlns:xlink="http://www.w3.org/1999/xlink" width="46.7001" height="46.70013" viewBox="0,0,46.7001,46.70013"><defs><radialGradient cx="180.00005" cy="320.00001" r="13.36667" gradientUnits="userSpaceOnUse" id="color-1"><stop offset="0" stop-color="#ebf5f5" stop-opacity="0"/><stop offset="1" stop-color="#ebf5f5" stop-opacity="0.15686"/></radialGradient></defs><g transform="translate(-156.64995,-296.64995)"><g stroke-miterlimit="10"><path d="M165.21427,320.00001c0,-8.16593 6.61979,-14.78571 14.78572,-14.78571c8.16592,0 14.78572,6.61979 14.78572,14.78571c0,8.16593 -6.61979,14.78571 -14.78572,14.78571c-8.16592,0 -14.78572,-6.61979 -14.78572,-14.78571z" fill="none" stroke-opacity="0.52157" stroke="#ebf6f6" stroke-width="3"/><path d="M165.21427,320.00001c0,-8.16593 6.61979,-14.78571 14.78572,-14.78571c8.16592,0 14.78572,6.61979 14.78572,14.78571c0,8.16593 -6.61979,14.78571 -14.78572,14.78571c-8.16592,0 -14.78572,-6.61979 -14.78572,-14.78571z" fill="none" stroke-opacity="0.85098" stroke="#dee0e0" stroke-width="2"/><path d="M165.21428,320.00001c0,-8.16592 6.61979,-14.78571 14.78571,-14.78571c8.16592,0 14.78571,6.61979 14.78571,14.78571c0,8.16592 -6.61979,14.78571 -14.78571,14.78571c-8.16592,0 -14.78571,-6.61979 -14.78571,-14.78571z" fill="none" stroke="#b0eede" stroke-width="1"/><path d="M166.63333,320.00001c0,-7.38221 5.98446,-13.36667 13.36667,-13.36667c7.38221,0 13.36667,5.98446 13.36667,13.36667c0,7.38221 -5.98446,13.36667 -13.36667,13.36667c-7.38221,0 -13.36667,-5.98446 -13.36667,-13.36667z" fill="url(#color-1)" stroke="none" stroke-width="0"/><path d="M162.10005,319.99995c0,-9.88598 8.01395,-17.9 17.9,-17.9c9.88598,0 17.9,8.01395 17.9,17.9c0,9.88598 -8.01395,17.9 -17.9,17.9c-9.88598,0 -17.9,-8.01395 -17.9,-17.9z" fill="none" stroke-opacity="0.87451" stroke="#f0fdfd" stroke-width="1"/><path d="M156.89995,320c0,-12.75787 10.34218,-23.10005 23.10005,-23.10005c12.75787,0 23.10005,10.34218 23.10005,23.10005c0,12.75787 -10.34218,23.10008 -23.10005,23.10008c-12.75787,0 -23.10005,-10.34218 -23.10005,-23.10008z" fill="none" stroke="#61eb9b" stroke-width="0.5"/></g></g></svg>