<svg version="1.1" xmlns="http://www.w3.org/2000/svg" xmlns:xlink="http://www.w3.org/1999/xlink" width="79.5" height="83.75967" viewBox="0,0,79.5,83.75967"><g transform="translate(-140.2143,-280.28572)"><g stroke-miterlimit="10"><path d="M145.50002,341.54368v-34.58227l17.1067,-17.05888h34.54812l17.20233,16.90518v34.42857l-17.20233,17.52339h-34.42857z" fill="#272828" stroke="#000000" stroke-width="0"/><path d="M140.2143,341.47396v-34.42857h5.28571v34.42857z" fill="#272828" stroke="#000000" stroke-width="0"/><path d="M214.35716,341.3311v-34.42857h5.28571v34.42857z" fill="#272828" stroke="#000000" stroke-width="0"/><path d="M197.07145,289.90252h-34.42857v-5.28571h34.42857z" fill="#272828" stroke="#000000" stroke-width="0"/><path d="M197.07145,364.04539h-34.42856v-5.28572h34.42856z" fill="#272828" stroke="#000000" stroke-width="0"/><path d="M162.60176,289.89302l-17.15236,17.15236l-2.63335,-2.63335l17.15236,-17.15236z" fill="#272828" stroke="#000000" stroke-width="0"/><path d="M214.39698,307.04539l-17.15237,-17.15237l2.63335,-2.63335l17.15237,17.15237z" fill="#272828" stroke="#000000" stroke-width="0"/><path d="M160.11127,361.3311l-17.15237,-17.15237l2.63335,-2.63335l17.15237,17.15237z" fill="#272828" stroke="#000000" stroke-width="0"/><path d="M216.88748,343.89302l-17.15237,17.15236l-2.63335,-2.63335l17.15236,-17.15237z" fill="#272828" stroke="#000000" stroke-width="0"/><path d="M145.57144,337.2126v-34.58227l17.1067,-17.05888h34.54812l17.20233,16.90518v34.42857l-17.20233,17.52339h-34.42857z" fill="#216394" stroke="#000000" stroke-width="0"/><path d="" fill="#31648a" stroke="#000000" stroke-width="0"/><path d="M140.28572,337.14288v-34.42857h5.28571v34.42857z" fill="#112063" stroke="#000000" stroke-width="0"/><path d="M214.42858,337.00001v-34.42857h5.28571v34.42857z" fill="#112063" stroke="#000000" stroke-width="0"/><path d="M197.14287,285.57145h-34.42857v-5.28571h34.42857z" fill="#112063" stroke="#000000" stroke-width="0"/><path d="M197.14287,359.71431h-34.42856v-5.28572h34.42856z" fill="#112063" stroke="#000000" stroke-width="0"/><path d="M162.67317,285.56192l-17.15236,17.15236l-2.63335,-2.63335l17.15236,-17.15236z" fill="#232d5b" stroke="#000000" stroke-width="0"/><path d="M214.4684,302.7143l-17.15237,-17.15237l2.63335,-2.63335l17.15237,17.15237z" fill="#232d5b" stroke="#000000" stroke-width="0"/><path d="M160.18269,357.00001l-17.15237,-17.15237l2.63335,-2.63335l17.15237,17.15237z" fill="#232d5b" stroke="#000000" stroke-width="0"/><path d="M217.10175,339.7048l-17.15237,17.15236l-2.63335,-2.63335l17.15236,-17.15237z" fill="#232d5b" stroke="#000000" stroke-width="0"/><path d="M145.62144,329.05625v-22.14286h68.71429v22.14286z" fill="#92a1e7" stroke="#000000" stroke-width="0"/><path d="M179.90716,329.05625v-16.32467h34.42857v16.32467z" fill="#ccd0e4" stroke="#000000" stroke-width="0"/><path d="M145.62144,323.23805v-16.32467h34.42857v16.32467z" fill="#ccd0e4" stroke="#000000" stroke-width="0"/><path d="M167.95455,285.64286h24.09091v68.71428h-24.09091z" fill="#3f225d" stroke="#000000" stroke-width="0"/><path d="M168.92858,285.64286h22.14286v68.71428h-22.14286z" fill="#7d8edd" stroke="#000000" stroke-width="0"/><path d="M151.7143,334.14147c0,-10.00417 0,-22.62712 0,-28.41199c0,-5.93659 8.10528,-14.01518 14.05446,-14.01518c5.78525,0 18.39195,0 28.38393,0c7.87953,0 14.13304,7.99293 14.13304,13.8889c0,5.74204 0,18.2773 0,28.28571c0,8.00706 -6.25567,14.39681 -14.13304,14.39681c-9.95703,0 -22.50506,0 -28.28571,0c-5.98061,0 -14.15268,-6.25858 -14.15268,-14.14426z" fill="#244f6f" stroke="#000000" stroke-width="0"/><path d="M197.14287,359.71431h-34.42856v-1.46219h34.42856z" fill="#0f1637" stroke="#000000" stroke-width="0"/><path d="M197.14287,281.74791h-34.42856v-1.46219h34.42856z" fill="#0f1637" stroke="#000000" stroke-width="0"/><path d="M219.7143,302.57145v34.42856h-1.46219v-34.42856z" fill="#0f1637" stroke="#000000" stroke-width="0"/><path d="M141.74791,302.7143v34.42856h-1.46218v-34.42856z" fill="#0f1637" stroke="#000000" stroke-width="0"/><path d="M160.18269,357.00001l-17.15237,-17.15237l1.03392,-1.03392l17.15237,17.15237z" fill="#2f5459" stroke="#000000" stroke-width="0"/><path d="M216.06783,301.11488l-17.15237,-17.15236l1.03392,-1.03392l17.15237,17.15236z" fill="#2f5459" stroke="#000000" stroke-width="0"/><path d="M142.88745,300.08095l17.15236,-17.15237l1.03392,1.03392l-17.15237,17.15237z" fill="#2f5459" stroke="#000000" stroke-width="0"/><path d="M198.91547,355.82324l17.15237,-17.15237l1.03392,1.03392l-17.15236,17.15236z" fill="#2f5459" stroke="#000000" stroke-width="0"/><path d="M152.20529,314.35759c1.23315,-6.53723 14.6773,-9.48923 30.02832,-6.59348c15.35104,2.89574 26.79584,10.54268 25.56268,17.07991c-1.23315,6.53723 -14.6773,9.48923 -30.02832,6.59348c-15.35104,-2.89574 -26.79584,-10.54268 -25.56268,-17.07991z" fill="#14476e" stroke="#000000" stroke-width="0"/><path d="M164.05391,296.2389c5.49449,-3.75055 17.08831,3.66851 25.89553,16.57093c8.80722,12.90242 11.49272,26.40233 5.99823,30.15287c-5.49449,3.75055 -17.08831,-3.66852 -25.89553,-16.57094c-8.80722,-12.90242 -11.49272,-26.40233 -5.99822,-30.15287z" fill="#14476e" stroke="#000000" stroke-width="0"/><path d="M185.24401,291.8053c6.53723,1.23315 9.48924,14.67729 6.59349,30.02832c-2.89574,15.35104 -10.54269,26.79584 -17.07992,25.56268c-6.53723,-1.23315 -9.48923,-14.67729 -6.59348,-30.02832c2.89574,-15.35104 10.54269,-26.79584 17.07991,-25.56268z" fill="#14476e" stroke="#000000" stroke-width="0"/><path d="M203.3627,303.65393c3.75055,5.49449 -3.66851,17.08831 -16.57093,25.89553c-12.90242,8.80722 -26.40234,11.49271 -30.15287,5.99822c-3.75055,-5.49449 3.66851,-17.08831 16.57093,-25.89553c12.90242,-8.80722 26.40233,-11.49271 30.15287,-5.99822z" fill="#14476e" stroke="#000000" stroke-width="0"/><path d="M190.56983,321.71361c-5.16283,2.9448 -12.31658,7.02518 -15.13684,8.63381c-2.29781,1.31064 -5.15694,0.55136 -5.15694,-2.74987c0,-5.80242 0,-14.41965 0,-17.82091c0,-2.75444 3.01464,-4.54479 5.39634,-3.18631c2.84019,1.62 9.89626,5.64468 14.98243,8.54576c3.26841,1.86425 3.22946,4.687 -0.08499,6.57751z" fill="#8ec0e6" stroke="#478fc6" stroke-width="2.5"/></g></g></svg>