<svg version="1.1" xmlns="http://www.w3.org/2000/svg" xmlns:xlink="http://www.w3.org/1999/xlink" width="327.57508" height="607.46396" viewBox="0,0,327.57508,607.46396"><g transform="translate(-16.21246,-16.26802)"><g stroke-miterlimit="10"><path d="M17.96246,546.8c0,-131.98765 0,-397.86209 0,-466c0,-31.22081 34.92403,-62.78198 63.13755,-62.78198c36.87733,0 134.20195,0 199,0c35.9842,0 61.93753,30.98874 61.93753,61.78198c0,68.0195 0,336.05299 0,468c0,45.00812 -30.48217,74.18198 -70.93753,74.18198c-61.73611,0 -146.6975,0 -182,0c-30.99015,0 -71.13755,-29.61056 -71.13755,-75.18198z" fill="#252f36" stroke="#8fc1e7" stroke-width="3.5" stroke-linecap="butt"/><text transform="translate(132.09805,59.34239) scale(0.79837,0.79837)" font-size="40" xml:space="preserve" fill="#8fc1e7" stroke="#8fc1e7" stroke-width="1" stroke-linecap="butt" font-family="&quot;03UI&quot;, Sans Serif" font-weight="normal" text-anchor="start"><tspan x="0" dy="0">遊び方</tspan></text><path d="M63.1688,59.17862l-10.63547,-10.63547l10.5312,-10.5312" fill="none" stroke="#8fc1e7" stroke-width="3.5" stroke-linecap="round"/><path d="M53.93358,115.35263v-36h36v36z" fill="#6a8eb3" stroke="none" stroke-width="0" stroke-linecap="butt"/><path d="M57.20631,112.0799v-29.45455h29.45455v29.45455z" fill="#709bc6" stroke="none" stroke-width="0" stroke-linecap="butt"/><path d="M53.93358,115.3l3.26842,-3.18182h29.52632l3.20526,3.18182z" fill="#5e768e" stroke="#000000" stroke-width="0" stroke-linecap="butt"/><path d="M54.00025,79.36666l3.18182,3.26842v29.52631l-3.18182,3.20526z" fill="#8ca7c1" stroke="#000000" stroke-width="0" stroke-linecap="butt"/><path d="M89.93358,115.3l-3.18182,-3.26842v-29.52631l3.18182,-3.20526z" fill="#6f8ca8" stroke="#000000" stroke-width="0" stroke-linecap="butt"/><path d="M57.20631,82.62536h3.18182l-3.18182,3.18182z" fill="#b0c6dc" stroke="#000000" stroke-width="0" stroke-linecap="butt"/><path d="M86.66085,82.62536v3.18182l-3.18182,-3.18182z" fill="#b0c6dc" stroke="#000000" stroke-width="0" stroke-linecap="butt"/><path d="M86.66085,112.0799h-3.18182l3.18182,-3.18182z" fill="#b0c6dc" stroke="#000000" stroke-width="0" stroke-linecap="butt"/><path d="M57.20631,112.0799v-3.18182l3.18182,3.18182z" fill="#b0c6dc" stroke="#000000" stroke-width="0" stroke-linecap="butt"/><path d="M57.20631,112.0799v-29.45455h0.86667v29.45455z" fill="#b0c6dc" stroke="#000000" stroke-width="0" stroke-linecap="butt"/><path d="M85.79418,112.0799v-29.45455h0.86667v29.45455z" fill="#b0c6dc" stroke="#000000" stroke-width="0" stroke-linecap="butt"/><path d="M86.66086,83.49203h-29.45455v-0.86667h29.45455z" fill="#b0c6dc" stroke="#000000" stroke-width="0" stroke-linecap="butt"/><path d="M86.66086,112.0799h-29.45455v-0.86667h29.45455z" fill="#b0c6dc" stroke="#000000" stroke-width="0" stroke-linecap="butt"/><path d="M89.93358,115.35263v-36h36v36z" fill="#6a8eb3" stroke="none" stroke-width="0" stroke-linecap="butt"/><path d="M93.20631,112.0799v-29.45455h29.45455v29.45455z" fill="#709bc6" stroke="none" stroke-width="0" stroke-linecap="butt"/><path d="M89.93358,115.3l3.26842,-3.18182h29.52632l3.20526,3.18182z" fill="#5e768e" stroke="#000000" stroke-width="0" stroke-linecap="butt"/><path d="M90.00025,79.36666l3.18182,3.26842v29.52631l-3.18182,3.20526z" fill="#8ca7c1" stroke="#000000" stroke-width="0" stroke-linecap="butt"/><path d="M125.93358,115.3l-3.18182,-3.26842v-29.52631l3.18182,-3.20526z" fill="#6f8ca8" stroke="#000000" stroke-width="0" stroke-linecap="butt"/><path d="M93.20631,82.62536h3.18182l-3.18182,3.18182z" fill="#b0c6dc" stroke="#000000" stroke-width="0" stroke-linecap="butt"/><path d="M122.66085,82.62536v3.18182l-3.18182,-3.18182z" fill="#b0c6dc" stroke="#000000" stroke-width="0" stroke-linecap="butt"/><path d="M122.66085,112.0799h-3.18182l3.18182,-3.18182z" fill="#b0c6dc" stroke="#000000" stroke-width="0" stroke-linecap="butt"/><path d="M93.20631,112.0799v-3.18182l3.18182,3.18182z" fill="#b0c6dc" stroke="#000000" stroke-width="0" stroke-linecap="butt"/><path d="M93.20631,112.0799v-29.45455h0.86667v29.45455z" fill="#b0c6dc" stroke="#000000" stroke-width="0" stroke-linecap="butt"/><path d="M121.79418,112.0799v-29.45455h0.86667v29.45455z" fill="#b0c6dc" stroke="#000000" stroke-width="0" stroke-linecap="butt"/><path d="M122.66086,83.49203h-29.45455v-0.86667h29.45455z" fill="#b0c6dc" stroke="#000000" stroke-width="0" stroke-linecap="butt"/><path d="M122.66086,112.0799h-29.45455v-0.86667h29.45455z" fill="#b0c6dc" stroke="#000000" stroke-width="0" stroke-linecap="butt"/><path d="M53.93358,151.40525v-36h36v36z" fill="#6a8eb3" stroke="none" stroke-width="0" stroke-linecap="butt"/><path d="M57.20631,148.13252v-29.45455h29.45455v29.45455z" fill="#709bc6" stroke="none" stroke-width="0" stroke-linecap="butt"/><path d="M53.93358,151.35262l3.26842,-3.18182h29.52632l3.20526,3.18182z" fill="#5e768e" stroke="#000000" stroke-width="0" stroke-linecap="butt"/><path d="M54.00025,115.41928l3.18182,3.26842v29.52631l-3.18182,3.20526z" fill="#8ca7c1" stroke="#000000" stroke-width="0" stroke-linecap="butt"/><path d="M89.93358,151.35262l-3.18182,-3.26842v-29.52631l3.18182,-3.20526z" fill="#6f8ca8" stroke="#000000" stroke-width="0" stroke-linecap="butt"/><path d="M57.20631,118.67798h3.18182l-3.18182,3.18182z" fill="#b0c6dc" stroke="#000000" stroke-width="0" stroke-linecap="butt"/><path d="M86.66085,118.67798v3.18182l-3.18182,-3.18182z" fill="#b0c6dc" stroke="#000000" stroke-width="0" stroke-linecap="butt"/><path d="M86.66085,148.13252h-3.18182l3.18182,-3.18182z" fill="#b0c6dc" stroke="#000000" stroke-width="0" stroke-linecap="butt"/><path d="M57.20631,148.13252v-3.18182l3.18182,3.18182z" fill="#b0c6dc" stroke="#000000" stroke-width="0" stroke-linecap="butt"/><path d="M57.20631,148.13252v-29.45455h0.86667v29.45455z" fill="#b0c6dc" stroke="#000000" stroke-width="0" stroke-linecap="butt"/><path d="M85.79418,148.13252v-29.45455h0.86667v29.45455z" fill="#b0c6dc" stroke="#000000" stroke-width="0" stroke-linecap="butt"/><path d="M86.66086,119.54465h-29.45455v-0.86667h29.45455z" fill="#b0c6dc" stroke="#000000" stroke-width="0" stroke-linecap="butt"/><path d="M86.66086,148.13252h-29.45455v-0.86667h29.45455z" fill="#b0c6dc" stroke="#000000" stroke-width="0" stroke-linecap="butt"/><path d="M89.93358,151.45787v-36h36v36z" fill="#6a8eb3" stroke="none" stroke-width="0" stroke-linecap="butt"/><path d="M93.20631,148.18514v-29.45455h29.45455v29.45455z" fill="#709bc6" stroke="none" stroke-width="0" stroke-linecap="butt"/><path d="M89.93358,151.40524l3.26842,-3.18182h29.52632l3.20526,3.18182z" fill="#5e768e" stroke="#000000" stroke-width="0" stroke-linecap="butt"/><path d="M90.00025,115.4719l3.18182,3.26842v29.52631l-3.18182,3.20526z" fill="#8ca7c1" stroke="#000000" stroke-width="0" stroke-linecap="butt"/><path d="M125.93358,151.40524l-3.18182,-3.26842v-29.52631l3.18182,-3.20526z" fill="#6f8ca8" stroke="#000000" stroke-width="0" stroke-linecap="butt"/><path d="M93.20631,118.7306h3.18182l-3.18182,3.18182z" fill="#b0c6dc" stroke="#000000" stroke-width="0" stroke-linecap="butt"/><path d="M122.66085,118.7306v3.18182l-3.18182,-3.18182z" fill="#b0c6dc" stroke="#000000" stroke-width="0" stroke-linecap="butt"/><path d="M122.66085,148.18514h-3.18182l3.18182,-3.18182z" fill="#b0c6dc" stroke="#000000" stroke-width="0" stroke-linecap="butt"/><path d="M93.20631,148.18514v-3.18182l3.18182,3.18182z" fill="#b0c6dc" stroke="#000000" stroke-width="0" stroke-linecap="butt"/><path d="M93.20631,148.18514v-29.45455h0.86667v29.45455z" fill="#b0c6dc" stroke="#000000" stroke-width="0" stroke-linecap="butt"/><path d="M121.79418,148.18514v-29.45455h0.86667v29.45455z" fill="#b0c6dc" stroke="#000000" stroke-width="0" stroke-linecap="butt"/><path d="M122.66086,119.59727h-29.45455v-0.86667h29.45455z" fill="#b0c6dc" stroke="#000000" stroke-width="0" stroke-linecap="butt"/><path d="M122.66086,148.18514h-29.45455v-0.86667h29.45455z" fill="#b0c6dc" stroke="#000000" stroke-width="0" stroke-linecap="butt"/><path d="M125.93358,115.44385v-36h36v36z" fill="#6a8eb3" stroke="none" stroke-width="0" stroke-linecap="butt"/><path d="M129.20631,112.17112v-29.45455h29.45455v29.45455z" fill="#709bc6" stroke="none" stroke-width="0" stroke-linecap="butt"/><path d="M125.93358,115.39122l3.26842,-3.18182h29.52632l3.20526,3.18182z" fill="#5e768e" stroke="#000000" stroke-width="0" stroke-linecap="butt"/><path d="M126.00025,79.45788l3.18182,3.26842v29.52631l-3.18182,3.20526z" fill="#8ca7c1" stroke="#000000" stroke-width="0" stroke-linecap="butt"/><path d="M161.93358,115.39122l-3.18182,-3.26842v-29.52631l3.18182,-3.20526z" fill="#6f8ca8" stroke="#000000" stroke-width="0" stroke-linecap="butt"/><path d="M129.20631,82.71658h3.18182l-3.18182,3.18182z" fill="#b0c6dc" stroke="#000000" stroke-width="0" stroke-linecap="butt"/><path d="M158.66085,82.71658v3.18182l-3.18182,-3.18182z" fill="#b0c6dc" stroke="#000000" stroke-width="0" stroke-linecap="butt"/><path d="M158.66085,112.17112h-3.18182l3.18182,-3.18182z" fill="#b0c6dc" stroke="#000000" stroke-width="0" stroke-linecap="butt"/><path d="M129.20631,112.17112v-3.18182l3.18182,3.18182z" fill="#b0c6dc" stroke="#000000" stroke-width="0" stroke-linecap="butt"/><path d="M129.20631,112.17112v-29.45455h0.86667v29.45455z" fill="#b0c6dc" stroke="#000000" stroke-width="0" stroke-linecap="butt"/><path d="M157.79418,112.17112v-29.45455h0.86667v29.45455z" fill="#b0c6dc" stroke="#000000" stroke-width="0" stroke-linecap="butt"/><path d="M158.66086,83.58325h-29.45455v-0.86667h29.45455z" fill="#b0c6dc" stroke="#000000" stroke-width="0" stroke-linecap="butt"/><path d="M158.66086,112.17112h-29.45455v-0.86667h29.45455z" fill="#b0c6dc" stroke="#000000" stroke-width="0" stroke-linecap="butt"/><path d="M126.00025,151.51049v-36h36v36z" fill="#6a8eb3" stroke="none" stroke-width="0" stroke-linecap="butt"/><path d="M129.27298,148.23776v-29.45455h29.45455v29.45455z" fill="#709bc6" stroke="none" stroke-width="0" stroke-linecap="butt"/><path d="M126.00025,151.45786l3.26842,-3.18182h29.52632l3.20526,3.18182z" fill="#5e768e" stroke="#000000" stroke-width="0" stroke-linecap="butt"/><path d="M126.06692,115.52452l3.18182,3.26842v29.52631l-3.18182,3.20526z" fill="#8ca7c1" stroke="#000000" stroke-width="0" stroke-linecap="butt"/><path d="M162.00025,151.45786l-3.18182,-3.26842v-29.52631l3.18182,-3.20526z" fill="#6f8ca8" stroke="#000000" stroke-width="0" stroke-linecap="butt"/><path d="M129.27298,118.78322h3.18182l-3.18182,3.18182z" fill="#b0c6dc" stroke="#000000" stroke-width="0" stroke-linecap="butt"/><path d="M158.72752,118.78322v3.18182l-3.18182,-3.18182z" fill="#b0c6dc" stroke="#000000" stroke-width="0" stroke-linecap="butt"/><path d="M158.72752,148.23776h-3.18182l3.18182,-3.18182z" fill="#b0c6dc" stroke="#000000" stroke-width="0" stroke-linecap="butt"/><path d="M129.27298,148.23776v-3.18182l3.18182,3.18182z" fill="#b0c6dc" stroke="#000000" stroke-width="0" stroke-linecap="butt"/><path d="M129.27298,148.23776v-29.45455h0.86667v29.45455z" fill="#b0c6dc" stroke="#000000" stroke-width="0" stroke-linecap="butt"/><path d="M157.86085,148.23776v-29.45455h0.86667v29.45455z" fill="#b0c6dc" stroke="#000000" stroke-width="0" stroke-linecap="butt"/><path d="M158.72753,119.64989h-29.45455v-0.86667h29.45455z" fill="#b0c6dc" stroke="#000000" stroke-width="0" stroke-linecap="butt"/><path d="M158.72753,148.23776h-29.45455v-0.86667h29.45455z" fill="#b0c6dc" stroke="#000000" stroke-width="0" stroke-linecap="butt"/><path d="M161.93358,115.3772v-36h36v36z" fill="#6a8eb3" stroke="none" stroke-width="0" stroke-linecap="butt"/><path d="M165.20631,112.10447v-29.45455h29.45455v29.45455z" fill="#709bc6" stroke="none" stroke-width="0" stroke-linecap="butt"/><path d="M161.93358,115.32457l3.26842,-3.18182h29.52632l3.20526,3.18182z" fill="#5e768e" stroke="#000000" stroke-width="0" stroke-linecap="butt"/><path d="M162.00025,79.39123l3.18182,3.26842v29.52631l-3.18182,3.20526z" fill="#8ca7c1" stroke="#000000" stroke-width="0" stroke-linecap="butt"/><path d="M197.93358,115.32457l-3.18182,-3.26842v-29.52631l3.18182,-3.20526z" fill="#6f8ca8" stroke="#000000" stroke-width="0" stroke-linecap="butt"/><path d="M165.20631,82.64993h3.18182l-3.18182,3.18182z" fill="#b0c6dc" stroke="#000000" stroke-width="0" stroke-linecap="butt"/><path d="M194.66085,82.64993v3.18182l-3.18182,-3.18182z" fill="#b0c6dc" stroke="#000000" stroke-width="0" stroke-linecap="butt"/><path d="M194.66085,112.10447h-3.18182l3.18182,-3.18182z" fill="#b0c6dc" stroke="#000000" stroke-width="0" stroke-linecap="butt"/><path d="M165.20631,112.10447v-3.18182l3.18182,3.18182z" fill="#b0c6dc" stroke="#000000" stroke-width="0" stroke-linecap="butt"/><path d="M165.20631,112.10447v-29.45455h0.86667v29.45455z" fill="#b0c6dc" stroke="#000000" stroke-width="0" stroke-linecap="butt"/><path d="M193.79418,112.10447v-29.45455h0.86667v29.45455z" fill="#b0c6dc" stroke="#000000" stroke-width="0" stroke-linecap="butt"/><path d="M194.66086,83.5166h-29.45455v-0.86667h29.45455z" fill="#b0c6dc" stroke="#000000" stroke-width="0" stroke-linecap="butt"/><path d="M194.66086,112.10447h-29.45455v-0.86667h29.45455z" fill="#b0c6dc" stroke="#000000" stroke-width="0" stroke-linecap="butt"/><path d="M162.00025,151.56311v-36h36v36z" fill="#6a8eb3" stroke="none" stroke-width="0" stroke-linecap="butt"/><path d="M165.27298,148.29038v-29.45455h29.45455v29.45455z" fill="#709bc6" stroke="none" stroke-width="0" stroke-linecap="butt"/><path d="M162.00025,151.51048l3.26842,-3.18182h29.52632l3.20526,3.18182z" fill="#5e768e" stroke="#000000" stroke-width="0" stroke-linecap="butt"/><path d="M162.06692,115.57714l3.18182,3.26842v29.52631l-3.18182,3.20526z" fill="#8ca7c1" stroke="#000000" stroke-width="0" stroke-linecap="butt"/><path d="M198.00025,151.51048l-3.18182,-3.26842v-29.52631l3.18182,-3.20526z" fill="#6f8ca8" stroke="#000000" stroke-width="0" stroke-linecap="butt"/><path d="M165.27298,118.83584h3.18182l-3.18182,3.18182z" fill="#b0c6dc" stroke="#000000" stroke-width="0" stroke-linecap="butt"/><path d="M194.72752,118.83584v3.18182l-3.18182,-3.18182z" fill="#b0c6dc" stroke="#000000" stroke-width="0" stroke-linecap="butt"/><path d="M194.72752,148.29038h-3.18182l3.18182,-3.18182z" fill="#b0c6dc" stroke="#000000" stroke-width="0" stroke-linecap="butt"/><path d="M165.27298,148.29038v-3.18182l3.18182,3.18182z" fill="#b0c6dc" stroke="#000000" stroke-width="0" stroke-linecap="butt"/><path d="M165.27298,148.29038v-29.45455h0.86667v29.45455z" fill="#b0c6dc" stroke="#000000" stroke-width="0" stroke-linecap="butt"/><path d="M193.86085,148.29038v-29.45455h0.86667v29.45455z" fill="#b0c6dc" stroke="#000000" stroke-width="0" stroke-linecap="butt"/><path d="M194.72753,119.70251h-29.45455v-0.86667h29.45455z" fill="#b0c6dc" stroke="#000000" stroke-width="0" stroke-linecap="butt"/><path d="M194.72753,148.29038h-29.45455v-0.86667h29.45455z" fill="#b0c6dc" stroke="#000000" stroke-width="0" stroke-linecap="butt"/><path d="M197.93358,115.31055v-36h36v36z" fill="#6a8eb3" stroke="none" stroke-width="0" stroke-linecap="butt"/><path d="M201.20631,112.03782v-29.45455h29.45455v29.45455z" fill="#709bc6" stroke="none" stroke-width="0" stroke-linecap="butt"/><path d="M197.93358,115.25792l3.26842,-3.18182h29.52632l3.20526,3.18182z" fill="#5e768e" stroke="#000000" stroke-width="0" stroke-linecap="butt"/><path d="M198.00025,79.32458l3.18182,3.26842v29.52631l-3.18182,3.20526z" fill="#8ca7c1" stroke="#000000" stroke-width="0" stroke-linecap="butt"/><path d="M233.93358,115.25792l-3.18182,-3.26842v-29.52631l3.18182,-3.20526z" fill="#6f8ca8" stroke="#000000" stroke-width="0" stroke-linecap="butt"/><path d="M201.20631,82.58328h3.18182l-3.18182,3.18182z" fill="#b0c6dc" stroke="#000000" stroke-width="0" stroke-linecap="butt"/><path d="M230.66085,82.58328v3.18182l-3.18182,-3.18182z" fill="#b0c6dc" stroke="#000000" stroke-width="0" stroke-linecap="butt"/><path d="M230.66085,112.03782h-3.18182l3.18182,-3.18182z" fill="#b0c6dc" stroke="#000000" stroke-width="0" stroke-linecap="butt"/><path d="M201.20631,112.03782v-3.18182l3.18182,3.18182z" fill="#b0c6dc" stroke="#000000" stroke-width="0" stroke-linecap="butt"/><path d="M201.20631,112.03782v-29.45455h0.86667v29.45455z" fill="#b0c6dc" stroke="#000000" stroke-width="0" stroke-linecap="butt"/><path d="M229.79418,112.03782v-29.45455h0.86667v29.45455z" fill="#b0c6dc" stroke="#000000" stroke-width="0" stroke-linecap="butt"/><path d="M230.66086,83.44995h-29.45455v-0.86667h29.45455z" fill="#b0c6dc" stroke="#000000" stroke-width="0" stroke-linecap="butt"/><path d="M230.66086,112.03782h-29.45455v-0.86667h29.45455z" fill="#b0c6dc" stroke="#000000" stroke-width="0" stroke-linecap="butt"/><path d="M198.00025,151.61573v-36h36v36z" fill="#6a8eb3" stroke="none" stroke-width="0" stroke-linecap="butt"/><path d="M201.27298,148.343v-29.45455h29.45455v29.45455z" fill="#709bc6" stroke="none" stroke-width="0" stroke-linecap="butt"/><path d="M198.00025,151.5631l3.26842,-3.18182h29.52632l3.20526,3.18182z" fill="#5e768e" stroke="#000000" stroke-width="0" stroke-linecap="butt"/><path d="M198.06692,115.62976l3.18182,3.26842v29.52631l-3.18182,3.20526z" fill="#8ca7c1" stroke="#000000" stroke-width="0" stroke-linecap="butt"/><path d="M234.00025,151.5631l-3.18182,-3.26842v-29.52631l3.18182,-3.20526z" fill="#6f8ca8" stroke="#000000" stroke-width="0" stroke-linecap="butt"/><path d="M201.27298,118.88846h3.18182l-3.18182,3.18182z" fill="#b0c6dc" stroke="#000000" stroke-width="0" stroke-linecap="butt"/><path d="M230.72752,118.88846v3.18182l-3.18182,-3.18182z" fill="#b0c6dc" stroke="#000000" stroke-width="0" stroke-linecap="butt"/><path d="M230.72752,148.343h-3.18182l3.18182,-3.18182z" fill="#b0c6dc" stroke="#000000" stroke-width="0" stroke-linecap="butt"/><path d="M201.27298,148.343v-3.18182l3.18182,3.18182z" fill="#b0c6dc" stroke="#000000" stroke-width="0" stroke-linecap="butt"/><path d="M201.27298,148.343v-29.45455h0.86667v29.45455z" fill="#b0c6dc" stroke="#000000" stroke-width="0" stroke-linecap="butt"/><path d="M229.86085,148.343v-29.45455h0.86667v29.45455z" fill="#b0c6dc" stroke="#000000" stroke-width="0" stroke-linecap="butt"/><path d="M230.72753,119.75513h-29.45455v-0.86667h29.45455z" fill="#b0c6dc" stroke="#000000" stroke-width="0" stroke-linecap="butt"/><path d="M230.72753,148.343h-29.45455v-0.86667h29.45455z" fill="#b0c6dc" stroke="#000000" stroke-width="0" stroke-linecap="butt"/><path d="M234.00025,115.54909v-36h36v36z" fill="#6a8eb3" stroke="none" stroke-width="0" stroke-linecap="butt"/><path d="M237.27298,112.27636v-29.45455h29.45455v29.45455z" fill="#709bc6" stroke="none" stroke-width="0" stroke-linecap="butt"/><path d="M234.00025,115.49646l3.26842,-3.18182h29.52632l3.20526,3.18182z" fill="#5e768e" stroke="#000000" stroke-width="0" stroke-linecap="butt"/><path d="M234.06692,79.56312l3.18182,3.26842v29.52631l-3.18182,3.20526z" fill="#8ca7c1" stroke="#000000" stroke-width="0" stroke-linecap="butt"/><path d="M270.00025,115.49646l-3.18182,-3.26842v-29.52631l3.18182,-3.20526z" fill="#6f8ca8" stroke="#000000" stroke-width="0" stroke-linecap="butt"/><path d="M237.27298,82.82182h3.18182l-3.18182,3.18182z" fill="#b0c6dc" stroke="#000000" stroke-width="0" stroke-linecap="butt"/><path d="M266.72752,82.82182v3.18182l-3.18182,-3.18182z" fill="#b0c6dc" stroke="#000000" stroke-width="0" stroke-linecap="butt"/><path d="M266.72752,112.27636h-3.18182l3.18182,-3.18182z" fill="#b0c6dc" stroke="#000000" stroke-width="0" stroke-linecap="butt"/><path d="M237.27298,112.27636v-3.18182l3.18182,3.18182z" fill="#b0c6dc" stroke="#000000" stroke-width="0" stroke-linecap="butt"/><path d="M237.27298,112.27636v-29.45455h0.86667v29.45455z" fill="#b0c6dc" stroke="#000000" stroke-width="0" stroke-linecap="butt"/><path d="M265.86085,112.27636v-29.45455h0.86667v29.45455z" fill="#b0c6dc" stroke="#000000" stroke-width="0" stroke-linecap="butt"/><path d="M266.72753,83.68849h-29.45455v-0.86667h29.45455z" fill="#b0c6dc" stroke="#000000" stroke-width="0" stroke-linecap="butt"/><path d="M266.72753,112.27636h-29.45455v-0.86667h29.45455z" fill="#b0c6dc" stroke="#000000" stroke-width="0" stroke-linecap="butt"/><path d="M234.06692,151.61573v-36h36v36z" fill="#6a8eb3" stroke="none" stroke-width="0" stroke-linecap="butt"/><path d="M237.33965,148.343v-29.45455h29.45455v29.45455z" fill="#709bc6" stroke="none" stroke-width="0" stroke-linecap="butt"/><path d="M234.06692,151.5631l3.26842,-3.18182h29.52632l3.20526,3.18182z" fill="#5e768e" stroke="#000000" stroke-width="0" stroke-linecap="butt"/><path d="M234.13359,115.62976l3.18182,3.26842v29.52631l-3.18182,3.20526z" fill="#8ca7c1" stroke="#000000" stroke-width="0" stroke-linecap="butt"/><path d="M270.06692,151.5631l-3.18182,-3.26842v-29.52631l3.18182,-3.20526z" fill="#6f8ca8" stroke="#000000" stroke-width="0" stroke-linecap="butt"/><path d="M237.33965,118.88846h3.18182l-3.18182,3.18182z" fill="#b0c6dc" stroke="#000000" stroke-width="0" stroke-linecap="butt"/><path d="M266.79419,118.88846v3.18182l-3.18182,-3.18182z" fill="#b0c6dc" stroke="#000000" stroke-width="0" stroke-linecap="butt"/><path d="M266.79419,148.343h-3.18182l3.18182,-3.18182z" fill="#b0c6dc" stroke="#000000" stroke-width="0" stroke-linecap="butt"/><path d="M237.33965,148.343v-3.18182l3.18182,3.18182z" fill="#b0c6dc" stroke="#000000" stroke-width="0" stroke-linecap="butt"/><path d="M237.33965,148.343v-29.45455h0.86667v29.45455z" fill="#b0c6dc" stroke="#000000" stroke-width="0" stroke-linecap="butt"/><path d="M265.92752,148.343v-29.45455h0.86667v29.45455z" fill="#b0c6dc" stroke="#000000" stroke-width="0" stroke-linecap="butt"/><path d="M266.7942,119.75513h-29.45455v-0.86667h29.45455z" fill="#b0c6dc" stroke="#000000" stroke-width="0" stroke-linecap="butt"/><path d="M266.7942,148.343h-29.45455v-0.86667h29.45455z" fill="#b0c6dc" stroke="#000000" stroke-width="0" stroke-linecap="butt"/><path d="M270.00025,115.60171v-36h36v36z" fill="#6a8eb3" stroke="none" stroke-width="0" stroke-linecap="butt"/><path d="M273.27298,112.32898v-29.45455h29.45455v29.45455z" fill="#709bc6" stroke="none" stroke-width="0" stroke-linecap="butt"/><path d="M270.00025,115.54908l3.26842,-3.18182h29.52632l3.20526,3.18182z" fill="#5e768e" stroke="#000000" stroke-width="0" stroke-linecap="butt"/><path d="M270.06692,79.61574l3.18182,3.26842v29.52631l-3.18182,3.20526z" fill="#8ca7c1" stroke="#000000" stroke-width="0" stroke-linecap="butt"/><path d="M306.00025,115.54908l-3.18182,-3.26842v-29.52631l3.18182,-3.20526z" fill="#6f8ca8" stroke="#000000" stroke-width="0" stroke-linecap="butt"/><path d="M273.27298,82.87444h3.18182l-3.18182,3.18182z" fill="#b0c6dc" stroke="#000000" stroke-width="0" stroke-linecap="butt"/><path d="M302.72752,82.87444v3.18182l-3.18182,-3.18182z" fill="#b0c6dc" stroke="#000000" stroke-width="0" stroke-linecap="butt"/><path d="M302.72752,112.32898h-3.18182l3.18182,-3.18182z" fill="#b0c6dc" stroke="#000000" stroke-width="0" stroke-linecap="butt"/><path d="M273.27298,112.32898v-3.18182l3.18182,3.18182z" fill="#b0c6dc" stroke="#000000" stroke-width="0" stroke-linecap="butt"/><path d="M273.27298,112.32898v-29.45455h0.86667v29.45455z" fill="#b0c6dc" stroke="#000000" stroke-width="0" stroke-linecap="butt"/><path d="M301.86085,112.32898v-29.45455h0.86667v29.45455z" fill="#b0c6dc" stroke="#000000" stroke-width="0" stroke-linecap="butt"/><path d="M302.72753,83.74111h-29.45455v-0.86667h29.45455z" fill="#b0c6dc" stroke="#000000" stroke-width="0" stroke-linecap="butt"/><path d="M302.72753,112.32898h-29.45455v-0.86667h29.45455z" fill="#b0c6dc" stroke="#000000" stroke-width="0" stroke-linecap="butt"/><path d="M270.06692,151.66835v-36h36v36z" fill="#6a8eb3" stroke="none" stroke-width="0" stroke-linecap="butt"/><path d="M273.33965,148.39562v-29.45455h29.45455v29.45455z" fill="#709bc6" stroke="none" stroke-width="0" stroke-linecap="butt"/><path d="M270.06692,151.61572l3.26842,-3.18182h29.52632l3.20526,3.18182z" fill="#5e768e" stroke="#000000" stroke-width="0" stroke-linecap="butt"/><path d="M270.13359,115.68238l3.18182,3.26842v29.52631l-3.18182,3.20526z" fill="#8ca7c1" stroke="#000000" stroke-width="0" stroke-linecap="butt"/><path d="M306.06692,151.61572l-3.18182,-3.26842v-29.52631l3.18182,-3.20526z" fill="#6f8ca8" stroke="#000000" stroke-width="0" stroke-linecap="butt"/><path d="M273.33965,118.94108h3.18182l-3.18182,3.18182z" fill="#b0c6dc" stroke="#000000" stroke-width="0" stroke-linecap="butt"/><path d="M302.79419,118.94108v3.18182l-3.18182,-3.18182z" fill="#b0c6dc" stroke="#000000" stroke-width="0" stroke-linecap="butt"/><path d="M302.79419,148.39562h-3.18182l3.18182,-3.18182z" fill="#b0c6dc" stroke="#000000" stroke-width="0" stroke-linecap="butt"/><path d="M273.33965,148.39562v-3.18182l3.18182,3.18182z" fill="#b0c6dc" stroke="#000000" stroke-width="0" stroke-linecap="butt"/><path d="M273.33965,148.39562v-29.45455h0.86667v29.45455z" fill="#b0c6dc" stroke="#000000" stroke-width="0" stroke-linecap="butt"/><path d="M301.92752,148.39562v-29.45455h0.86667v29.45455z" fill="#b0c6dc" stroke="#000000" stroke-width="0" stroke-linecap="butt"/><path d="M302.7942,119.80775h-29.45455v-0.86667h29.45455z" fill="#b0c6dc" stroke="#000000" stroke-width="0" stroke-linecap="butt"/><path d="M302.7942,148.39562h-29.45455v-0.86667h29.45455z" fill="#b0c6dc" stroke="#000000" stroke-width="0" stroke-linecap="butt"/><path d="M54.00025,187.47189v-36h36v36z" fill="#6a8eb3" stroke="none" stroke-width="0" stroke-linecap="butt"/><path d="M57.27298,184.19916v-29.45455h29.45455v29.45455z" fill="#709bc6" stroke="none" stroke-width="0" stroke-linecap="butt"/><path d="M54.00025,187.41926l3.26842,-3.18182h29.52632l3.20526,3.18182z" fill="#5e768e" stroke="#000000" stroke-width="0" stroke-linecap="butt"/><path d="M54.06692,151.48592l3.18182,3.26842v29.52631l-3.18182,3.20526z" fill="#8ca7c1" stroke="#000000" stroke-width="0" stroke-linecap="butt"/><path d="M90.00025,187.41926l-3.18182,-3.26842v-29.52631l3.18182,-3.20526z" fill="#6f8ca8" stroke="#000000" stroke-width="0" stroke-linecap="butt"/><path d="M57.27298,154.74462h3.18182l-3.18182,3.18182z" fill="#b0c6dc" stroke="#000000" stroke-width="0" stroke-linecap="butt"/><path d="M86.72752,154.74462v3.18182l-3.18182,-3.18182z" fill="#b0c6dc" stroke="#000000" stroke-width="0" stroke-linecap="butt"/><path d="M86.72752,184.19916h-3.18182l3.18182,-3.18182z" fill="#b0c6dc" stroke="#000000" stroke-width="0" stroke-linecap="butt"/><path d="M57.27298,184.19916v-3.18182l3.18182,3.18182z" fill="#b0c6dc" stroke="#000000" stroke-width="0" stroke-linecap="butt"/><path d="M57.27298,184.19916v-29.45455h0.86667v29.45455z" fill="#b0c6dc" stroke="#000000" stroke-width="0" stroke-linecap="butt"/><path d="M85.86085,184.19916v-29.45455h0.86667v29.45455z" fill="#b0c6dc" stroke="#000000" stroke-width="0" stroke-linecap="butt"/><path d="M86.72753,155.61129h-29.45455v-0.86667h29.45455z" fill="#b0c6dc" stroke="#000000" stroke-width="0" stroke-linecap="butt"/><path d="M86.72753,184.19916h-29.45455v-0.86667h29.45455z" fill="#b0c6dc" stroke="#000000" stroke-width="0" stroke-linecap="butt"/><path d="M90.00025,187.52451v-36h36v36z" fill="#6a8eb3" stroke="none" stroke-width="0" stroke-linecap="butt"/><path d="M93.27298,184.25178v-29.45455h29.45455v29.45455z" fill="#709bc6" stroke="none" stroke-width="0" stroke-linecap="butt"/><path d="M90.00025,187.47188l3.26842,-3.18182h29.52632l3.20526,3.18182z" fill="#5e768e" stroke="#000000" stroke-width="0" stroke-linecap="butt"/><path d="M90.06692,151.53854l3.18182,3.26842v29.52631l-3.18182,3.20526z" fill="#8ca7c1" stroke="#000000" stroke-width="0" stroke-linecap="butt"/><path d="M126.00025,187.47188l-3.18182,-3.26842v-29.52631l3.18182,-3.20526z" fill="#6f8ca8" stroke="#000000" stroke-width="0" stroke-linecap="butt"/><path d="M93.27298,154.79724h3.18182l-3.18182,3.18182z" fill="#b0c6dc" stroke="#000000" stroke-width="0" stroke-linecap="butt"/><path d="M122.72752,154.79724v3.18182l-3.18182,-3.18182z" fill="#b0c6dc" stroke="#000000" stroke-width="0" stroke-linecap="butt"/><path d="M122.72752,184.25178h-3.18182l3.18182,-3.18182z" fill="#b0c6dc" stroke="#000000" stroke-width="0" stroke-linecap="butt"/><path d="M93.27298,184.25178v-3.18182l3.18182,3.18182z" fill="#b0c6dc" stroke="#000000" stroke-width="0" stroke-linecap="butt"/><path d="M93.27298,184.25178v-29.45455h0.86667v29.45455z" fill="#b0c6dc" stroke="#000000" stroke-width="0" stroke-linecap="butt"/><path d="M121.86085,184.25178v-29.45455h0.86667v29.45455z" fill="#b0c6dc" stroke="#000000" stroke-width="0" stroke-linecap="butt"/><path d="M122.72753,155.66391h-29.45455v-0.86667h29.45455z" fill="#b0c6dc" stroke="#000000" stroke-width="0" stroke-linecap="butt"/><path d="M122.72753,184.25178h-29.45455v-0.86667h29.45455z" fill="#b0c6dc" stroke="#000000" stroke-width="0" stroke-linecap="butt"/><path d="M126.06692,187.57713v-36h36v36z" fill="#6a8eb3" stroke="none" stroke-width="0" stroke-linecap="butt"/><path d="M129.33965,184.3044v-29.45455h29.45455v29.45455z" fill="#709bc6" stroke="none" stroke-width="0" stroke-linecap="butt"/><path d="M126.06692,187.5245l3.26842,-3.18182h29.52632l3.20526,3.18182z" fill="#5e768e" stroke="#000000" stroke-width="0" stroke-linecap="butt"/><path d="M126.13359,151.59116l3.18182,3.26842v29.52631l-3.18182,3.20526z" fill="#8ca7c1" stroke="#000000" stroke-width="0" stroke-linecap="butt"/><path d="M162.06692,187.5245l-3.18182,-3.26842v-29.52631l3.18182,-3.20526z" fill="#6f8ca8" stroke="#000000" stroke-width="0" stroke-linecap="butt"/><path d="M129.33965,154.84986h3.18182l-3.18182,3.18182z" fill="#b0c6dc" stroke="#000000" stroke-width="0" stroke-linecap="butt"/><path d="M158.79419,154.84986v3.18182l-3.18182,-3.18182z" fill="#b0c6dc" stroke="#000000" stroke-width="0" stroke-linecap="butt"/><path d="M158.79419,184.3044h-3.18182l3.18182,-3.18182z" fill="#b0c6dc" stroke="#000000" stroke-width="0" stroke-linecap="butt"/><path d="M129.33965,184.3044v-3.18182l3.18182,3.18182z" fill="#b0c6dc" stroke="#000000" stroke-width="0" stroke-linecap="butt"/><path d="M129.33965,184.3044v-29.45455h0.86667v29.45455z" fill="#b0c6dc" stroke="#000000" stroke-width="0" stroke-linecap="butt"/><path d="M157.92752,184.3044v-29.45455h0.86667v29.45455z" fill="#b0c6dc" stroke="#000000" stroke-width="0" stroke-linecap="butt"/><path d="M158.7942,155.71653h-29.45455v-0.86667h29.45455z" fill="#b0c6dc" stroke="#000000" stroke-width="0" stroke-linecap="butt"/><path d="M158.7942,184.3044h-29.45455v-0.86667h29.45455z" fill="#b0c6dc" stroke="#000000" stroke-width="0" stroke-linecap="butt"/><path d="M162.06692,187.62975v-36h36v36z" fill="#6a8eb3" stroke="none" stroke-width="0" stroke-linecap="butt"/><path d="M165.33965,184.35702v-29.45455h29.45455v29.45455z" fill="#709bc6" stroke="none" stroke-width="0" stroke-linecap="butt"/><path d="M162.06692,187.57712l3.26842,-3.18182h29.52632l3.20526,3.18182z" fill="#5e768e" stroke="#000000" stroke-width="0" stroke-linecap="butt"/><path d="M162.13359,151.64378l3.18182,3.26842v29.52631l-3.18182,3.20526z" fill="#8ca7c1" stroke="#000000" stroke-width="0" stroke-linecap="butt"/><path d="M198.06692,187.57712l-3.18182,-3.26842v-29.52631l3.18182,-3.20526z" fill="#6f8ca8" stroke="#000000" stroke-width="0" stroke-linecap="butt"/><path d="M165.33965,154.90248h3.18182l-3.18182,3.18182z" fill="#b0c6dc" stroke="#000000" stroke-width="0" stroke-linecap="butt"/><path d="M194.79419,154.90248v3.18182l-3.18182,-3.18182z" fill="#b0c6dc" stroke="#000000" stroke-width="0" stroke-linecap="butt"/><path d="M194.79419,184.35702h-3.18182l3.18182,-3.18182z" fill="#b0c6dc" stroke="#000000" stroke-width="0" stroke-linecap="butt"/><path d="M165.33965,184.35702v-3.18182l3.18182,3.18182z" fill="#b0c6dc" stroke="#000000" stroke-width="0" stroke-linecap="butt"/><path d="M165.33965,184.35702v-29.45455h0.86667v29.45455z" fill="#b0c6dc" stroke="#000000" stroke-width="0" stroke-linecap="butt"/><path d="M193.92752,184.35702v-29.45455h0.86667v29.45455z" fill="#b0c6dc" stroke="#000000" stroke-width="0" stroke-linecap="butt"/><path d="M194.7942,155.76915h-29.45455v-0.86667h29.45455z" fill="#b0c6dc" stroke="#000000" stroke-width="0" stroke-linecap="butt"/><path d="M194.7942,184.35702h-29.45455v-0.86667h29.45455z" fill="#b0c6dc" stroke="#000000" stroke-width="0" stroke-linecap="butt"/><path d="M198.06692,187.68237v-36h36v36z" fill="#6a8eb3" stroke="none" stroke-width="0" stroke-linecap="butt"/><path d="M201.33965,184.40964v-29.45455h29.45455v29.45455z" fill="#709bc6" stroke="none" stroke-width="0" stroke-linecap="butt"/><path d="M198.06692,187.62974l3.26842,-3.18182h29.52632l3.20526,3.18182z" fill="#5e768e" stroke="#000000" stroke-width="0" stroke-linecap="butt"/><path d="M198.13359,151.6964l3.18182,3.26842v29.52631l-3.18182,3.20526z" fill="#8ca7c1" stroke="#000000" stroke-width="0" stroke-linecap="butt"/><path d="M234.06692,187.62974l-3.18182,-3.26842v-29.52631l3.18182,-3.20526z" fill="#6f8ca8" stroke="#000000" stroke-width="0" stroke-linecap="butt"/><path d="M201.33965,154.9551h3.18182l-3.18182,3.18182z" fill="#b0c6dc" stroke="#000000" stroke-width="0" stroke-linecap="butt"/><path d="M230.79419,154.9551v3.18182l-3.18182,-3.18182z" fill="#b0c6dc" stroke="#000000" stroke-width="0" stroke-linecap="butt"/><path d="M230.79419,184.40964h-3.18182l3.18182,-3.18182z" fill="#b0c6dc" stroke="#000000" stroke-width="0" stroke-linecap="butt"/><path d="M201.33965,184.40964v-3.18182l3.18182,3.18182z" fill="#b0c6dc" stroke="#000000" stroke-width="0" stroke-linecap="butt"/><path d="M201.33965,184.40964v-29.45455h0.86667v29.45455z" fill="#b0c6dc" stroke="#000000" stroke-width="0" stroke-linecap="butt"/><path d="M229.92752,184.40964v-29.45455h0.86667v29.45455z" fill="#b0c6dc" stroke="#000000" stroke-width="0" stroke-linecap="butt"/><path d="M230.7942,155.82177h-29.45455v-0.86667h29.45455z" fill="#b0c6dc" stroke="#000000" stroke-width="0" stroke-linecap="butt"/><path d="M230.7942,184.40964h-29.45455v-0.86667h29.45455z" fill="#b0c6dc" stroke="#000000" stroke-width="0" stroke-linecap="butt"/><path d="M234.13359,187.68237v-36h36v36z" fill="#6a8eb3" stroke="none" stroke-width="0" stroke-linecap="butt"/><path d="M237.40632,184.40964v-29.45455h29.45455v29.45455z" fill="#709bc6" stroke="none" stroke-width="0" stroke-linecap="butt"/><path d="M234.13359,187.62974l3.26842,-3.18182h29.52632l3.20526,3.18182z" fill="#5e768e" stroke="#000000" stroke-width="0" stroke-linecap="butt"/><path d="M234.20026,151.6964l3.18182,3.26842v29.52631l-3.18182,3.20526z" fill="#8ca7c1" stroke="#000000" stroke-width="0" stroke-linecap="butt"/><path d="M270.13359,187.62974l-3.18182,-3.26842v-29.52631l3.18182,-3.20526z" fill="#6f8ca8" stroke="#000000" stroke-width="0" stroke-linecap="butt"/><path d="M237.40632,154.9551h3.18182l-3.18182,3.18182z" fill="#b0c6dc" stroke="#000000" stroke-width="0" stroke-linecap="butt"/><path d="M266.86086,154.9551v3.18182l-3.18182,-3.18182z" fill="#b0c6dc" stroke="#000000" stroke-width="0" stroke-linecap="butt"/><path d="M266.86086,184.40964h-3.18182l3.18182,-3.18182z" fill="#b0c6dc" stroke="#000000" stroke-width="0" stroke-linecap="butt"/><path d="M237.40632,184.40964v-3.18182l3.18182,3.18182z" fill="#b0c6dc" stroke="#000000" stroke-width="0" stroke-linecap="butt"/><path d="M237.40632,184.40964v-29.45455h0.86667v29.45455z" fill="#b0c6dc" stroke="#000000" stroke-width="0" stroke-linecap="butt"/><path d="M265.99419,184.40964v-29.45455h0.86667v29.45455z" fill="#b0c6dc" stroke="#000000" stroke-width="0" stroke-linecap="butt"/><path d="M266.86087,155.82177h-29.45455v-0.86667h29.45455z" fill="#b0c6dc" stroke="#000000" stroke-width="0" stroke-linecap="butt"/><path d="M266.86087,184.40964h-29.45455v-0.86667h29.45455z" fill="#b0c6dc" stroke="#000000" stroke-width="0" stroke-linecap="butt"/><path d="M270.13359,187.73499v-36h36v36z" fill="#6a8eb3" stroke="none" stroke-width="0" stroke-linecap="butt"/><path d="M273.40632,184.46226v-29.45455h29.45455v29.45455z" fill="#709bc6" stroke="none" stroke-width="0" stroke-linecap="butt"/><path d="M270.13359,187.68236l3.26842,-3.18182h29.52632l3.20526,3.18182z" fill="#5e768e" stroke="#000000" stroke-width="0" stroke-linecap="butt"/><path d="M270.20026,151.74902l3.18182,3.26842v29.52631l-3.18182,3.20526z" fill="#8ca7c1" stroke="#000000" stroke-width="0" stroke-linecap="butt"/><path d="M306.13359,187.68236l-3.18182,-3.26842v-29.52631l3.18182,-3.20526z" fill="#6f8ca8" stroke="#000000" stroke-width="0" stroke-linecap="butt"/><path d="M273.40632,155.00772h3.18182l-3.18182,3.18182z" fill="#b0c6dc" stroke="#000000" stroke-width="0" stroke-linecap="butt"/><path d="M302.86086,155.00772v3.18182l-3.18182,-3.18182z" fill="#b0c6dc" stroke="#000000" stroke-width="0" stroke-linecap="butt"/><path d="M302.86086,184.46226h-3.18182l3.18182,-3.18182z" fill="#b0c6dc" stroke="#000000" stroke-width="0" stroke-linecap="butt"/><path d="M273.40632,184.46226v-3.18182l3.18182,3.18182z" fill="#b0c6dc" stroke="#000000" stroke-width="0" stroke-linecap="butt"/><path d="M273.40632,184.46226v-29.45455h0.86667v29.45455z" fill="#b0c6dc" stroke="#000000" stroke-width="0" stroke-linecap="butt"/><path d="M301.99419,184.46226v-29.45455h0.86667v29.45455z" fill="#b0c6dc" stroke="#000000" stroke-width="0" stroke-linecap="butt"/><path d="M302.86087,155.87439h-29.45455v-0.86667h29.45455z" fill="#b0c6dc" stroke="#000000" stroke-width="0" stroke-linecap="butt"/><path d="M302.86087,184.46226h-29.45455v-0.86667h29.45455z" fill="#b0c6dc" stroke="#000000" stroke-width="0" stroke-linecap="butt"/><text transform="translate(50.68358,213.00597) scale(0.43083,0.43083)" font-size="40" xml:space="preserve" fill="#8fc1e7" stroke="none" stroke-width="1" stroke-linecap="butt" font-family="&quot;03UI&quot;, Sans Serif" font-weight="normal" text-anchor="start"><tspan x="0" dy="0">このゲームは、上のようなタイル</tspan><tspan x="0" dy="46.150000000000006px">をタップし、道のようにスタート</tspan><tspan x="0" dy="46.150000000000006px">からゴールまで繋げるパズルゲー</tspan><tspan x="0" dy="46.150000000000006px">ムです。</tspan><tspan x="0" dy="46.150000000000006px"> </tspan><tspan x="0" dy="46.150000000000006px"> </tspan><tspan x="0" dy="46.150000000000006px"> </tspan><tspan x="0" dy="46.150000000000006px"> </tspan><tspan x="0" dy="46.150000000000006px"> </tspan><tspan x="0" dy="46.150000000000006px">これらがスタートとゴールのタイ</tspan><tspan x="0" dy="46.150000000000006px">ルです。スタートタイルとゴール</tspan><tspan x="0" dy="46.150000000000006px">タイル以外のタイルには、数字が</tspan><tspan x="0" dy="46.150000000000006px">書いてあります。</tspan><tspan x="0" dy="46.150000000000006px"> </tspan><tspan x="0" dy="46.150000000000006px"> </tspan><tspan x="0" dy="46.150000000000006px"> </tspan><tspan x="0" dy="46.150000000000006px"> </tspan><tspan x="0" dy="46.150000000000006px">数字は0から12まであります。</tspan></text><path d="M76.75,343.99065v-48h48v48z" fill="#78b369" stroke="none" stroke-width="0" stroke-linecap="butt"/><path d="M81.11364,339.62701v-39.27273h39.27273v39.27273z" fill="#7ec771" stroke="none" stroke-width="0" stroke-linecap="butt"/><path d="M76.75,343.92048l4.35789,-4.24243h39.36843l4.27368,4.24243z" fill="#688f5e" stroke="#000000" stroke-width="0" stroke-linecap="butt"/><path d="M76.83889,296.00936l4.24243,4.35789v39.36841l-4.24243,4.27368z" fill="#98c28d" stroke="#000000" stroke-width="0" stroke-linecap="butt"/><path d="M124.75,343.92048l-4.24243,-4.35789v-39.36841l4.24243,-4.27368z" fill="#7ba86f" stroke="#000000" stroke-width="0" stroke-linecap="butt"/><path d="M81.11364,300.35429h4.24243l-4.24243,4.24243z" fill="#b8dbaf" stroke="#000000" stroke-width="0" stroke-linecap="butt"/><path d="M120.38636,300.35429v4.24243l-4.24243,-4.24243z" fill="#b8dbaf" stroke="#000000" stroke-width="0" stroke-linecap="butt"/><path d="M120.38636,339.62701h-4.24243l4.24243,-4.24243z" fill="#b8dbaf" stroke="#000000" stroke-width="0" stroke-linecap="butt"/><path d="M81.11364,339.62701v-4.24243l4.24243,4.24243z" fill="#b8dbaf" stroke="#000000" stroke-width="0" stroke-linecap="butt"/><path d="M81.11364,339.62701v-39.27273h1.15556v39.27273z" fill="#b8dbaf" stroke="#000000" stroke-width="0" stroke-linecap="butt"/><path d="M119.2308,339.62701v-39.27273h1.15556v39.27273z" fill="#b8dbaf" stroke="#000000" stroke-width="0" stroke-linecap="butt"/><path d="M120.38637,301.50985h-39.27273v-1.15556h39.27273z" fill="#b8dbaf" stroke="#000000" stroke-width="0" stroke-linecap="butt"/><path d="M120.38637,339.62701h-39.27273v-1.15556h39.27273z" fill="#b8dbaf" stroke="#000000" stroke-width="0" stroke-linecap="butt"/><path d="M235.25,344.06081v-48h48v48z" fill="#b39569" stroke="none" stroke-width="0" stroke-linecap="butt"/><path d="M239.61364,339.69717v-39.27273h39.27273v39.27273z" fill="#c7a571" stroke="none" stroke-width="0" stroke-linecap="butt"/><path d="M235.25,343.99063l4.35789,-4.24243h39.36843l4.27368,4.24243z" fill="#8f7b5e" stroke="#000000" stroke-width="0" stroke-linecap="butt"/><path d="M235.33889,296.07951l4.24243,4.35789v39.36841l-4.24243,4.27368z" fill="#c2ad8d" stroke="#000000" stroke-width="0" stroke-linecap="butt"/><path d="M283.25,343.99063l-4.24243,-4.35789v-39.36841l4.24243,-4.27368z" fill="#a8916f" stroke="#000000" stroke-width="0" stroke-linecap="butt"/><path d="M239.61364,300.42445h4.24243l-4.24243,4.24243z" fill="#dbcaaf" stroke="#000000" stroke-width="0" stroke-linecap="butt"/><path d="M278.88636,300.42445v4.24243l-4.24243,-4.24243z" fill="#dbcaaf" stroke="#000000" stroke-width="0" stroke-linecap="butt"/><path d="M278.88636,339.69717h-4.24243l4.24243,-4.24243z" fill="#dbcaaf" stroke="#000000" stroke-width="0" stroke-linecap="butt"/><path d="M239.61364,339.69717v-4.24243l4.24243,4.24243z" fill="#dbcaaf" stroke="#000000" stroke-width="0" stroke-linecap="butt"/><path d="M239.61364,339.69717v-39.27273h1.15556v39.27273z" fill="#dbcaaf" stroke="#000000" stroke-width="0" stroke-linecap="butt"/><path d="M277.7308,339.69717v-39.27273h1.15556v39.27273z" fill="#dbcaaf" stroke="#000000" stroke-width="0" stroke-linecap="butt"/><path d="M278.88637,301.58001h-39.27273v-1.15556h39.27273z" fill="#dbcaaf" stroke="#000000" stroke-width="0" stroke-linecap="butt"/><path d="M278.88637,339.69717h-39.27273v-1.15556h39.27273z" fill="#dbcaaf" stroke="#000000" stroke-width="0" stroke-linecap="butt"/><text transform="translate(46.87576,360.932) scale(0.39403,0.39403)" font-size="40" xml:space="preserve" fill="#8fc1e7" stroke="none" stroke-width="1" stroke-linecap="butt" font-family="&quot;03UI&quot;, Sans Serif" font-weight="normal" text-anchor="start"><tspan x="0" dy="0">スタートタイル</tspan></text><text transform="translate(215.93358,361.26534) scale(0.39403,0.39403)" font-size="40" xml:space="preserve" fill="#8fc1e7" stroke="none" stroke-width="1" stroke-linecap="butt" font-family="&quot;03UI&quot;, Sans Serif" font-weight="normal" text-anchor="start"><tspan x="0" dy="0">ゴールタイル</tspan></text><path d="M103.93258,519.52632v-48h48v48z" fill="#6a8eb3" stroke="none" stroke-width="0" stroke-linecap="butt"/><path d="M108.29622,515.16268v-39.27273h39.27273v39.27273z" fill="#709bc6" stroke="none" stroke-width="0" stroke-linecap="butt"/><path d="M103.93258,519.45615l4.35789,-4.24243h39.36843l4.27368,4.24243z" fill="#5e768e" stroke="#000000" stroke-width="0" stroke-linecap="butt"/><path d="M104.02147,471.54503l4.24243,4.35789v39.36841l-4.24243,4.27368z" fill="#8ca7c1" stroke="#000000" stroke-width="0" stroke-linecap="butt"/><path d="M151.93258,519.45615l-4.24243,-4.35789v-39.36841l4.24243,-4.27368z" fill="#6f8ca8" stroke="#000000" stroke-width="0" stroke-linecap="butt"/><path d="M108.29622,475.88996h4.24243l-4.24243,4.24243z" fill="#b0c6dc" stroke="#000000" stroke-width="0" stroke-linecap="butt"/><path d="M147.56894,475.88996v4.24243l-4.24243,-4.24243z" fill="#b0c6dc" stroke="#000000" stroke-width="0" stroke-linecap="butt"/><path d="M147.56894,515.16268h-4.24243l4.24243,-4.24243z" fill="#b0c6dc" stroke="#000000" stroke-width="0" stroke-linecap="butt"/><path d="M108.29622,515.16268v-4.24243l4.24243,4.24243z" fill="#b0c6dc" stroke="#000000" stroke-width="0" stroke-linecap="butt"/><path d="M108.29622,515.16268v-39.27273h1.15556v39.27273z" fill="#b0c6dc" stroke="#000000" stroke-width="0" stroke-linecap="butt"/><path d="M146.41338,515.16268v-39.27273h1.15556v39.27273z" fill="#b0c6dc" stroke="#000000" stroke-width="0" stroke-linecap="butt"/><path d="M147.56895,477.04553h-39.27273v-1.15556h39.27273z" fill="#b0c6dc" stroke="#000000" stroke-width="0" stroke-linecap="butt"/><path d="M147.56895,515.16268h-39.27273v-1.15556h39.27273z" fill="#b0c6dc" stroke="#000000" stroke-width="0" stroke-linecap="butt"/><text transform="translate(119.17258,504.55132) scale(0.66667,0.66667)" font-size="40" xml:space="preserve" fill="#ffffff" stroke="none" stroke-width="1" stroke-linecap="butt" font-family="&quot;03UI&quot;, Sans Serif" font-weight="normal" text-anchor="start"><tspan x="0" dy="0">0</tspan></text><path d="M207.93258,519.52633v-48h48v48z" fill="#6a8eb3" stroke="none" stroke-width="0" stroke-linecap="butt"/><path d="M212.29622,515.16269v-39.27273h39.27273v39.27273z" fill="#709bc6" stroke="none" stroke-width="0" stroke-linecap="butt"/><path d="M207.93258,519.45616l4.35789,-4.24243h39.36843l4.27368,4.24243z" fill="#5e768e" stroke="#000000" stroke-width="0" stroke-linecap="butt"/><path d="M208.02147,471.54504l4.24243,4.35789v39.36841l-4.24243,4.27368z" fill="#8ca7c1" stroke="#000000" stroke-width="0" stroke-linecap="butt"/><path d="M255.93258,519.45616l-4.24243,-4.35789v-39.36841l4.24243,-4.27368z" fill="#6f8ca8" stroke="#000000" stroke-width="0" stroke-linecap="butt"/><path d="M212.29622,475.88997h4.24243l-4.24243,4.24243z" fill="#b0c6dc" stroke="#000000" stroke-width="0" stroke-linecap="butt"/><path d="M251.56894,475.88997v4.24243l-4.24243,-4.24243z" fill="#b0c6dc" stroke="#000000" stroke-width="0" stroke-linecap="butt"/><path d="M251.56894,515.16269h-4.24243l4.24243,-4.24243z" fill="#b0c6dc" stroke="#000000" stroke-width="0" stroke-linecap="butt"/><path d="M212.29622,515.16269v-4.24243l4.24243,4.24243z" fill="#b0c6dc" stroke="#000000" stroke-width="0" stroke-linecap="butt"/><path d="M212.29622,515.16269v-39.27273h1.15556v39.27273z" fill="#b0c6dc" stroke="#000000" stroke-width="0" stroke-linecap="butt"/><path d="M250.41338,515.16269v-39.27273h1.15556v39.27273z" fill="#b0c6dc" stroke="#000000" stroke-width="0" stroke-linecap="butt"/><path d="M251.56895,477.04553h-39.27273v-1.15556h39.27273z" fill="#b0c6dc" stroke="#000000" stroke-width="0" stroke-linecap="butt"/><path d="M251.56895,515.16269h-39.27273v-1.15556h39.27273z" fill="#b0c6dc" stroke="#000000" stroke-width="0" stroke-linecap="butt"/><text transform="translate(217.48591,505.02633) scale(0.66667,0.66667)" font-size="40" xml:space="preserve" fill="#ffffff" stroke="none" stroke-width="1" stroke-linecap="butt" font-family="&quot;03UI&quot;, Sans Serif" font-weight="normal" text-anchor="start"><tspan x="0" dy="0">12</tspan></text><text transform="translate(162,507.8) scale(0.9,0.9)" font-size="40" xml:space="preserve" fill="#8fc1e7" stroke="none" stroke-width="1" stroke-linecap="butt" font-family="&quot;03UI&quot;, Sans Serif" font-weight="normal" text-anchor="start"><tspan x="0" dy="0">～</tspan></text><text transform="translate(169.26845,602.6) scale(0.52133,0.5)" font-size="40" xml:space="preserve" fill="#8fc1e7" stroke="none" stroke-width="1" stroke-linecap="butt" font-family="&quot;03UI&quot;, Sans Serif" font-weight="normal" text-anchor="start"><tspan x="0" dy="0">１ 〉</tspan></text></g></g></svg>