<svg version="1.1" xmlns="http://www.w3.org/2000/svg" xmlns:xlink="http://www.w3.org/1999/xlink" width="327.57508" height="607.46396" viewBox="0,0,327.57508,607.46396"><g transform="translate(-16.21246,-16.26802)"><g stroke-miterlimit="10"><path d="M17.96246,546.8c0,-131.98765 0,-397.86209 0,-466c0,-31.22081 34.92403,-62.78198 63.13755,-62.78198c36.87733,0 134.20195,0 199,0c35.9842,0 61.93753,30.98874 61.93753,61.78198c0,68.0195 0,336.05299 0,468c0,45.00812 -30.48217,74.18198 -70.93753,74.18198c-61.73611,0 -146.6975,0 -182,0c-30.99015,0 -71.13755,-29.61056 -71.13755,-75.18198z" fill="#252f36" stroke="#8fc1e7" stroke-width="3.5" stroke-linecap="butt"/><text transform="translate(132.09805,59.34239) scale(0.79837,0.79837)" font-size="40" xml:space="preserve" fill="#8fc1e7" stroke="#8fc1e7" stroke-width="1" stroke-linecap="butt" font-family="&quot;03UI&quot;, Sans Serif" font-weight="normal" text-anchor="start"><tspan x="0" dy="0">遊び方</tspan></text><path d="M63.1688,59.17862l-10.63547,-10.63547l10.5312,-10.5312" fill="none" stroke="#8fc1e7" stroke-width="3.5" stroke-linecap="round"/><text transform="translate(50.68358,99.00597) scale(0.43083,0.43083)" font-size="40" xml:space="preserve" fill="#8fc1e7" stroke="none" stroke-width="1" stroke-linecap="butt" font-family="&quot;03UI&quot;, Sans Serif" font-weight="normal" text-anchor="start"><tspan x="0" dy="0">そして、数字はそれぞれのタイル</tspan><tspan x="0" dy="48px">ごとに違い、タップした時に書い</tspan><tspan x="0" dy="48px">てある数字が得点に入ります。ゴ</tspan><tspan x="0" dy="48px">ールタイルまで繋げると、ゴール</tspan><tspan x="0" dy="48px">タイルが赤色になり、ゴールする</tspan><tspan x="0" dy="48px">までの得点の合計値が決定します</tspan><tspan x="0" dy="48px">。</tspan><tspan x="0" dy="48px"> </tspan><tspan x="0" dy="48px"> </tspan><tspan x="0" dy="48px"> </tspan><tspan x="0" dy="48px"> </tspan><tspan x="0" dy="48px"> </tspan><tspan x="0" dy="48px"> </tspan><tspan x="0" dy="48px"> </tspan><tspan x="0" dy="48px"> </tspan><tspan x="0" dy="48px"> </tspan><tspan x="0" dy="48px"> </tspan><tspan x="0" dy="48px">上の場合はスタートから1⇒3⇒1</tspan><tspan x="0" dy="48px">⇒2⇒1とゴールまで繋がっている</tspan><tspan x="0" dy="48px">ので、1+3+1+2+1=8で得点の合計</tspan><tspan x="0" dy="48px">は8点となります。</tspan></text><text transform="translate(145.26642,602.6) scale(0.52133,0.5)" font-size="40" xml:space="preserve" fill="#8fc1e7" stroke="none" stroke-width="1" stroke-linecap="butt" font-family="&quot;03UI&quot;, Sans Serif" font-weight="normal" text-anchor="start"><tspan x="0" dy="0">〈 2 〉</tspan></text><path d="M156,288.02573v-48h48v48z" fill="#b36969" stroke="none" stroke-width="0" stroke-linecap="butt"/><path d="M160.36364,283.66208v-39.27273h39.27273v39.27273z" fill="#c77171" stroke="none" stroke-width="0" stroke-linecap="butt"/><path d="M156,287.95556l4.35789,-4.24242h39.36843l4.27368,4.24242z" fill="#8f5e5e" stroke="#000000" stroke-width="0" stroke-linecap="butt"/><path d="M156.0889,240.04444l4.24243,4.35789v39.36842l-4.24243,4.27368z" fill="#c28d8d" stroke="#000000" stroke-width="0" stroke-linecap="butt"/><path d="M204,287.95556l-4.24243,-4.35789v-39.36841l4.24243,-4.27368z" fill="#a86f6f" stroke="#000000" stroke-width="0" stroke-linecap="butt"/><path d="M160.36364,244.38937h4.24242l-4.24242,4.24242z" fill="#dbafaf" stroke="#000000" stroke-width="0" stroke-linecap="butt"/><path d="M199.63636,244.38937v4.24242l-4.24242,-4.24242z" fill="#dbafaf" stroke="#000000" stroke-width="0" stroke-linecap="butt"/><path d="M199.63636,283.66208h-4.24242l4.24242,-4.24242z" fill="#dbafaf" stroke="#000000" stroke-width="0" stroke-linecap="butt"/><path d="M160.36364,283.66208v-4.24242l4.24242,4.24242z" fill="#dbafaf" stroke="#000000" stroke-width="0" stroke-linecap="butt"/><path d="M160.36364,283.66208v-39.27273h1.15556v39.27273z" fill="#dbafaf" stroke="#000000" stroke-width="0" stroke-linecap="butt"/><path d="M198.4808,283.66208v-39.27273h1.15556v39.27273z" fill="#dbafaf" stroke="#000000" stroke-width="0" stroke-linecap="butt"/><path d="M199.63637,245.54493h-39.27273v-1.15556h39.27273z" fill="#dbafaf" stroke="#000000" stroke-width="0" stroke-linecap="butt"/><path d="M199.63637,283.66208h-39.27273v-1.15556h39.27273z" fill="#dbafaf" stroke="#000000" stroke-width="0" stroke-linecap="butt"/><text transform="translate(132.7164,305.01943) scale(0.39403,0.39403)" font-size="40" xml:space="preserve" fill="#8fc1e7" stroke="none" stroke-width="1" stroke-linecap="butt" font-family="&quot;03UI&quot;, Sans Serif" font-weight="normal" text-anchor="start"><tspan x="0" dy="0">ゴールタイル</tspan></text><path d="M89.89924,356.0193v-36h36v36z" fill="#78b369" stroke="none" stroke-width="0" stroke-linecap="butt"/><path d="M93.17196,352.74657v-29.45455h29.45455v29.45455z" fill="#7ec771" stroke="none" stroke-width="0" stroke-linecap="butt"/><path d="M89.89924,355.96667l3.26842,-3.18182h29.52632l3.20526,3.18182z" fill="#688f5e" stroke="#000000" stroke-width="0" stroke-linecap="butt"/><path d="M89.96591,320.03333l3.18182,3.26842v29.52631l-3.18182,3.20526z" fill="#98c28d" stroke="#000000" stroke-width="0" stroke-linecap="butt"/><path d="M125.89924,355.96667l-3.18182,-3.26842v-29.52631l3.18182,-3.20526z" fill="#7ba86f" stroke="#000000" stroke-width="0" stroke-linecap="butt"/><path d="M93.17197,323.29203h3.18182l-3.18182,3.18182z" fill="#b8dbaf" stroke="#000000" stroke-width="0" stroke-linecap="butt"/><path d="M122.62651,323.29203v3.18182l-3.18182,-3.18182z" fill="#b8dbaf" stroke="#000000" stroke-width="0" stroke-linecap="butt"/><path d="M122.62651,352.74657h-3.18182l3.18182,-3.18182z" fill="#b8dbaf" stroke="#000000" stroke-width="0" stroke-linecap="butt"/><path d="M93.17197,352.74657v-3.18182l3.18182,3.18182z" fill="#b8dbaf" stroke="#000000" stroke-width="0" stroke-linecap="butt"/><path d="M93.17197,352.74657v-29.45455h0.86667v29.45455z" fill="#b8dbaf" stroke="#000000" stroke-width="0" stroke-linecap="butt"/><path d="M121.75984,352.74657v-29.45455h0.86667v29.45455z" fill="#b8dbaf" stroke="#000000" stroke-width="0" stroke-linecap="butt"/><path d="M122.62652,324.1587h-29.45455v-0.86667h29.45455z" fill="#b8dbaf" stroke="#000000" stroke-width="0" stroke-linecap="butt"/><path d="M122.62652,352.74657h-29.45455v-0.86667h29.45455z" fill="#b8dbaf" stroke="#000000" stroke-width="0" stroke-linecap="butt"/><path d="M125.89924,356.07192v-36h36v36z" fill="#6a8eb3" stroke="none" stroke-width="0" stroke-linecap="butt"/><path d="M129.17197,352.79919v-29.45455h29.45455v29.45455z" fill="#709bc6" stroke="none" stroke-width="0" stroke-linecap="butt"/><path d="M125.89924,356.01929l3.26842,-3.18182h29.52632l3.20526,3.18182z" fill="#5e768e" stroke="#000000" stroke-width="0" stroke-linecap="butt"/><path d="M125.96591,320.08595l3.18182,3.26842v29.52631l-3.18182,3.20526z" fill="#8ca7c1" stroke="#000000" stroke-width="0" stroke-linecap="butt"/><path d="M161.89924,356.01929l-3.18182,-3.26842v-29.52631l3.18182,-3.20526z" fill="#6f8ca8" stroke="#000000" stroke-width="0" stroke-linecap="butt"/><path d="M129.17197,323.34465h3.18182l-3.18182,3.18182z" fill="#b0c6dc" stroke="#000000" stroke-width="0" stroke-linecap="butt"/><path d="M158.62651,323.34465v3.18182l-3.18182,-3.18182z" fill="#b0c6dc" stroke="#000000" stroke-width="0" stroke-linecap="butt"/><path d="M158.62651,352.79919h-3.18182l3.18182,-3.18182z" fill="#b0c6dc" stroke="#000000" stroke-width="0" stroke-linecap="butt"/><path d="M129.17197,352.79919v-3.18182l3.18182,3.18182z" fill="#b0c6dc" stroke="#000000" stroke-width="0" stroke-linecap="butt"/><path d="M129.17197,352.79919v-29.45455h0.86667v29.45455z" fill="#b0c6dc" stroke="#000000" stroke-width="0" stroke-linecap="butt"/><path d="M157.75984,352.79919v-29.45455h0.86667v29.45455z" fill="#b0c6dc" stroke="#000000" stroke-width="0" stroke-linecap="butt"/><path d="M158.62652,324.21132h-29.45455v-0.86667h29.45455z" fill="#b0c6dc" stroke="#000000" stroke-width="0" stroke-linecap="butt"/><path d="M158.62652,352.79919h-29.45455v-0.86667h29.45455z" fill="#b0c6dc" stroke="#000000" stroke-width="0" stroke-linecap="butt"/><text transform="translate(139.30424,344.82192) scale(0.5,0.5)" font-size="40" xml:space="preserve" fill="#ffffff" stroke="none" stroke-width="1" stroke-linecap="butt" font-family="&quot;03UI&quot;, Sans Serif" font-weight="normal" text-anchor="start"><tspan x="0" dy="0">1</tspan></text><path d="M161.89924,356.00527v-36h36v36z" fill="#6a8eb3" stroke="none" stroke-width="0" stroke-linecap="butt"/><path d="M165.17197,352.73254v-29.45455h29.45455v29.45455z" fill="#709bc6" stroke="none" stroke-width="0" stroke-linecap="butt"/><path d="M161.89924,355.95264l3.26842,-3.18182h29.52632l3.20526,3.18182z" fill="#5e768e" stroke="#000000" stroke-width="0" stroke-linecap="butt"/><path d="M161.96591,320.0193l3.18182,3.26842v29.52631l-3.18182,3.20526z" fill="#8ca7c1" stroke="#000000" stroke-width="0" stroke-linecap="butt"/><path d="M197.89924,355.95264l-3.18182,-3.26842v-29.52631l3.18182,-3.20526z" fill="#6f8ca8" stroke="#000000" stroke-width="0" stroke-linecap="butt"/><path d="M165.17197,323.278h3.18182l-3.18182,3.18182z" fill="#b0c6dc" stroke="#000000" stroke-width="0" stroke-linecap="butt"/><path d="M194.62651,323.278v3.18182l-3.18182,-3.18182z" fill="#b0c6dc" stroke="#000000" stroke-width="0" stroke-linecap="butt"/><path d="M194.62651,352.73254h-3.18182l3.18182,-3.18182z" fill="#b0c6dc" stroke="#000000" stroke-width="0" stroke-linecap="butt"/><path d="M165.17197,352.73254v-3.18182l3.18182,3.18182z" fill="#b0c6dc" stroke="#000000" stroke-width="0" stroke-linecap="butt"/><path d="M165.17197,352.73254v-29.45455h0.86667v29.45455z" fill="#b0c6dc" stroke="#000000" stroke-width="0" stroke-linecap="butt"/><path d="M193.75984,352.73254v-29.45455h0.86667v29.45455z" fill="#b0c6dc" stroke="#000000" stroke-width="0" stroke-linecap="butt"/><path d="M194.62652,324.14467h-29.45455v-0.86667h29.45455z" fill="#b0c6dc" stroke="#000000" stroke-width="0" stroke-linecap="butt"/><path d="M194.62652,352.73254h-29.45455v-0.86667h29.45455z" fill="#b0c6dc" stroke="#000000" stroke-width="0" stroke-linecap="butt"/><text transform="translate(173.01424,344.63027) scale(0.5,0.5)" font-size="40" xml:space="preserve" fill="#ffffff" stroke="none" stroke-width="1" stroke-linecap="butt" font-family="&quot;03UI&quot;, Sans Serif" font-weight="normal" text-anchor="start"><tspan x="0" dy="0">3</tspan></text><path d="M197.89924,356.05789v-36h36v36z" fill="#6a8eb3" stroke="none" stroke-width="0" stroke-linecap="butt"/><path d="M201.17197,352.78516v-29.45455h29.45455v29.45455z" fill="#709bc6" stroke="none" stroke-width="0" stroke-linecap="butt"/><path d="M197.89924,356.00526l3.26842,-3.18182h29.52632l3.20526,3.18182z" fill="#5e768e" stroke="#000000" stroke-width="0" stroke-linecap="butt"/><path d="M197.96591,320.07192l3.18182,3.26842v29.52631l-3.18182,3.20526z" fill="#8ca7c1" stroke="#000000" stroke-width="0" stroke-linecap="butt"/><path d="M233.89924,356.00526l-3.18182,-3.26842v-29.52631l3.18182,-3.20526z" fill="#6f8ca8" stroke="#000000" stroke-width="0" stroke-linecap="butt"/><path d="M201.17197,323.33062h3.18182l-3.18182,3.18182z" fill="#b0c6dc" stroke="#000000" stroke-width="0" stroke-linecap="butt"/><path d="M230.62651,323.33062v3.18182l-3.18182,-3.18182z" fill="#b0c6dc" stroke="#000000" stroke-width="0" stroke-linecap="butt"/><path d="M230.62651,352.78516h-3.18182l3.18182,-3.18182z" fill="#b0c6dc" stroke="#000000" stroke-width="0" stroke-linecap="butt"/><path d="M201.17197,352.78516v-3.18182l3.18182,3.18182z" fill="#b0c6dc" stroke="#000000" stroke-width="0" stroke-linecap="butt"/><path d="M201.17197,352.78516v-29.45455h0.86667v29.45455z" fill="#b0c6dc" stroke="#000000" stroke-width="0" stroke-linecap="butt"/><path d="M229.75984,352.78516v-29.45455h0.86667v29.45455z" fill="#b0c6dc" stroke="#000000" stroke-width="0" stroke-linecap="butt"/><path d="M230.62652,324.19729h-29.45455v-0.86667h29.45455z" fill="#b0c6dc" stroke="#000000" stroke-width="0" stroke-linecap="butt"/><path d="M230.62652,352.78516h-29.45455v-0.86667h29.45455z" fill="#b0c6dc" stroke="#000000" stroke-width="0" stroke-linecap="butt"/><text transform="translate(209.32924,344.82664) scale(0.5,0.5)" font-size="40" xml:space="preserve" fill="#ffffff" stroke="none" stroke-width="1" stroke-linecap="butt" font-family="&quot;03UI&quot;, Sans Serif" font-weight="normal" text-anchor="start"><tspan x="0" dy="0">0</tspan></text><path d="M125.96591,392.13856v-36h36v36z" fill="#6a8eb3" stroke="none" stroke-width="0" stroke-linecap="butt"/><path d="M129.23864,388.86583v-29.45455h29.45455v29.45455z" fill="#709bc6" stroke="none" stroke-width="0" stroke-linecap="butt"/><path d="M125.96591,392.08593l3.26842,-3.18182h29.52632l3.20526,3.18182z" fill="#5e768e" stroke="#000000" stroke-width="0" stroke-linecap="butt"/><path d="M126.03258,356.15259l3.18182,3.26842v29.52631l-3.18182,3.20526z" fill="#8ca7c1" stroke="#000000" stroke-width="0" stroke-linecap="butt"/><path d="M161.96591,392.08593l-3.18182,-3.26842v-29.52631l3.18182,-3.20526z" fill="#6f8ca8" stroke="#000000" stroke-width="0" stroke-linecap="butt"/><path d="M129.23864,359.41129h3.18182l-3.18182,3.18182z" fill="#b0c6dc" stroke="#000000" stroke-width="0" stroke-linecap="butt"/><path d="M158.69318,359.41129v3.18182l-3.18182,-3.18182z" fill="#b0c6dc" stroke="#000000" stroke-width="0" stroke-linecap="butt"/><path d="M158.69318,388.86583h-3.18182l3.18182,-3.18182z" fill="#b0c6dc" stroke="#000000" stroke-width="0" stroke-linecap="butt"/><path d="M129.23864,388.86583v-3.18182l3.18182,3.18182z" fill="#b0c6dc" stroke="#000000" stroke-width="0" stroke-linecap="butt"/><path d="M129.23864,388.86583v-29.45455h0.86667v29.45455z" fill="#b0c6dc" stroke="#000000" stroke-width="0" stroke-linecap="butt"/><path d="M157.82651,388.86583v-29.45455h0.86667v29.45455z" fill="#b0c6dc" stroke="#000000" stroke-width="0" stroke-linecap="butt"/><path d="M158.69319,360.27796h-29.45455v-0.86667h29.45455z" fill="#b0c6dc" stroke="#000000" stroke-width="0" stroke-linecap="butt"/><path d="M158.69319,388.86583h-29.45455v-0.86667h29.45455z" fill="#b0c6dc" stroke="#000000" stroke-width="0" stroke-linecap="butt"/><text transform="translate(137.39591,380.90731) scale(0.5,0.5)" font-size="40" xml:space="preserve" fill="#ffffff" stroke="none" stroke-width="1" stroke-linecap="butt" font-family="&quot;03UI&quot;, Sans Serif" font-weight="normal" text-anchor="start"><tspan x="0" dy="0">0</tspan></text><path d="M233.89924,356.11051v-36h36v36z" fill="#6a8eb3" stroke="none" stroke-width="0" stroke-linecap="butt"/><path d="M237.17197,352.83778v-29.45455h29.45455v29.45455z" fill="#709bc6" stroke="none" stroke-width="0" stroke-linecap="butt"/><path d="M233.89924,356.05788l3.26842,-3.18182h29.52632l3.20526,3.18182z" fill="#5e768e" stroke="#000000" stroke-width="0" stroke-linecap="butt"/><path d="M233.96591,320.12454l3.18182,3.26842v29.52631l-3.18182,3.20526z" fill="#8ca7c1" stroke="#000000" stroke-width="0" stroke-linecap="butt"/><path d="M269.89924,356.05788l-3.18182,-3.26842v-29.52631l3.18182,-3.20526z" fill="#6f8ca8" stroke="#000000" stroke-width="0" stroke-linecap="butt"/><path d="M237.17197,323.38324h3.18182l-3.18182,3.18182z" fill="#b0c6dc" stroke="#000000" stroke-width="0" stroke-linecap="butt"/><path d="M266.62651,323.38324v3.18182l-3.18182,-3.18182z" fill="#b0c6dc" stroke="#000000" stroke-width="0" stroke-linecap="butt"/><path d="M266.62651,352.83778h-3.18182l3.18182,-3.18182z" fill="#b0c6dc" stroke="#000000" stroke-width="0" stroke-linecap="butt"/><path d="M237.17197,352.83778v-3.18182l3.18182,3.18182z" fill="#b0c6dc" stroke="#000000" stroke-width="0" stroke-linecap="butt"/><path d="M237.17197,352.83778v-29.45455h0.86667v29.45455z" fill="#b0c6dc" stroke="#000000" stroke-width="0" stroke-linecap="butt"/><path d="M265.75984,352.83778v-29.45455h0.86667v29.45455z" fill="#b0c6dc" stroke="#000000" stroke-width="0" stroke-linecap="butt"/><path d="M266.62652,324.24991h-29.45455v-0.86667h29.45455z" fill="#b0c6dc" stroke="#000000" stroke-width="0" stroke-linecap="butt"/><path d="M266.62652,352.83778h-29.45455v-0.86667h29.45455z" fill="#b0c6dc" stroke="#000000" stroke-width="0" stroke-linecap="butt"/><text transform="translate(245.32924,344.87926) scale(0.5,0.5)" font-size="40" xml:space="preserve" fill="#ffffff" stroke="none" stroke-width="1" stroke-linecap="butt" font-family="&quot;03UI&quot;, Sans Serif" font-weight="normal" text-anchor="start"><tspan x="0" dy="0">0</tspan></text><path d="M161.96591,428.0719v-36h36v36z" fill="#6a8eb3" stroke="none" stroke-width="0" stroke-linecap="butt"/><path d="M165.23864,424.79917v-29.45455h29.45455v29.45455z" fill="#709bc6" stroke="none" stroke-width="0" stroke-linecap="butt"/><path d="M161.96591,428.01927l3.26842,-3.18182h29.52632l3.20526,3.18182z" fill="#5e768e" stroke="#000000" stroke-width="0" stroke-linecap="butt"/><path d="M162.03258,392.08593l3.18182,3.26842v29.52631l-3.18182,3.20526z" fill="#8ca7c1" stroke="#000000" stroke-width="0" stroke-linecap="butt"/><path d="M197.96591,428.01927l-3.18182,-3.26842v-29.52631l3.18182,-3.20526z" fill="#6f8ca8" stroke="#000000" stroke-width="0" stroke-linecap="butt"/><path d="M165.23864,395.34463h3.18182l-3.18182,3.18182z" fill="#b0c6dc" stroke="#000000" stroke-width="0" stroke-linecap="butt"/><path d="M194.69318,395.34463v3.18182l-3.18182,-3.18182z" fill="#b0c6dc" stroke="#000000" stroke-width="0" stroke-linecap="butt"/><path d="M194.69318,424.79917h-3.18182l3.18182,-3.18182z" fill="#b0c6dc" stroke="#000000" stroke-width="0" stroke-linecap="butt"/><path d="M165.23864,424.79917v-3.18182l3.18182,3.18182z" fill="#b0c6dc" stroke="#000000" stroke-width="0" stroke-linecap="butt"/><path d="M165.23864,424.79917v-29.45455h0.86667v29.45455z" fill="#b0c6dc" stroke="#000000" stroke-width="0" stroke-linecap="butt"/><path d="M193.82651,424.79917v-29.45455h0.86667v29.45455z" fill="#b0c6dc" stroke="#000000" stroke-width="0" stroke-linecap="butt"/><path d="M194.69319,396.2113h-29.45455v-0.86667h29.45455z" fill="#b0c6dc" stroke="#000000" stroke-width="0" stroke-linecap="butt"/><path d="M194.69319,424.79917h-29.45455v-0.86667h29.45455z" fill="#b0c6dc" stroke="#000000" stroke-width="0" stroke-linecap="butt"/><text transform="translate(173.39591,416.84065) scale(0.5,0.5)" font-size="40" xml:space="preserve" fill="#ffffff" stroke="none" stroke-width="1" stroke-linecap="butt" font-family="&quot;03UI&quot;, Sans Serif" font-weight="normal" text-anchor="start"><tspan x="0" dy="0">0</tspan></text><path d="M233.96591,392.17715v-36h36v36z" fill="#6a8eb3" stroke="none" stroke-width="0" stroke-linecap="butt"/><path d="M237.23864,388.90442v-29.45455h29.45455v29.45455z" fill="#709bc6" stroke="none" stroke-width="0" stroke-linecap="butt"/><path d="M233.96591,392.12452l3.26842,-3.18182h29.52632l3.20526,3.18182z" fill="#5e768e" stroke="#000000" stroke-width="0" stroke-linecap="butt"/><path d="M234.03258,356.19118l3.18182,3.26842v29.52631l-3.18182,3.20526z" fill="#8ca7c1" stroke="#000000" stroke-width="0" stroke-linecap="butt"/><path d="M269.96591,392.12452l-3.18182,-3.26842v-29.52631l3.18182,-3.20526z" fill="#6f8ca8" stroke="#000000" stroke-width="0" stroke-linecap="butt"/><path d="M237.23864,359.44988h3.18182l-3.18182,3.18182z" fill="#b0c6dc" stroke="#000000" stroke-width="0" stroke-linecap="butt"/><path d="M266.69318,359.44988v3.18182l-3.18182,-3.18182z" fill="#b0c6dc" stroke="#000000" stroke-width="0" stroke-linecap="butt"/><path d="M266.69318,388.90442h-3.18182l3.18182,-3.18182z" fill="#b0c6dc" stroke="#000000" stroke-width="0" stroke-linecap="butt"/><path d="M237.23864,388.90442v-3.18182l3.18182,3.18182z" fill="#b0c6dc" stroke="#000000" stroke-width="0" stroke-linecap="butt"/><path d="M237.23864,388.90442v-29.45455h0.86667v29.45455z" fill="#b0c6dc" stroke="#000000" stroke-width="0" stroke-linecap="butt"/><path d="M265.82651,388.90442v-29.45455h0.86667v29.45455z" fill="#b0c6dc" stroke="#000000" stroke-width="0" stroke-linecap="butt"/><path d="M266.69319,360.31655h-29.45455v-0.86667h29.45455z" fill="#b0c6dc" stroke="#000000" stroke-width="0" stroke-linecap="butt"/><path d="M266.69319,388.90442h-29.45455v-0.86667h29.45455z" fill="#b0c6dc" stroke="#000000" stroke-width="0" stroke-linecap="butt"/><text transform="translate(245.39591,380.9459) scale(0.5,0.5)" font-size="40" xml:space="preserve" fill="#ffffff" stroke="none" stroke-width="1" stroke-linecap="butt" font-family="&quot;03UI&quot;, Sans Serif" font-weight="normal" text-anchor="start"><tspan x="0" dy="0">0</tspan></text><path d="M125.96591,428.13855v-36h36v36z" fill="#6a8eb3" stroke="none" stroke-width="0" stroke-linecap="butt"/><path d="M129.23864,424.86582v-29.45455h29.45455v29.45455z" fill="#709bc6" stroke="none" stroke-width="0" stroke-linecap="butt"/><path d="M125.96591,428.08592l3.26842,-3.18182h29.52632l3.20526,3.18182z" fill="#5e768e" stroke="#000000" stroke-width="0" stroke-linecap="butt"/><path d="M126.03258,392.15258l3.18182,3.26842v29.52631l-3.18182,3.20526z" fill="#8ca7c1" stroke="#000000" stroke-width="0" stroke-linecap="butt"/><path d="M161.96591,428.08592l-3.18182,-3.26842v-29.52631l3.18182,-3.20526z" fill="#6f8ca8" stroke="#000000" stroke-width="0" stroke-linecap="butt"/><path d="M129.23864,395.41128h3.18182l-3.18182,3.18182z" fill="#b0c6dc" stroke="#000000" stroke-width="0" stroke-linecap="butt"/><path d="M158.69318,395.41128v3.18182l-3.18182,-3.18182z" fill="#b0c6dc" stroke="#000000" stroke-width="0" stroke-linecap="butt"/><path d="M158.69318,424.86582h-3.18182l3.18182,-3.18182z" fill="#b0c6dc" stroke="#000000" stroke-width="0" stroke-linecap="butt"/><path d="M129.23864,424.86582v-3.18182l3.18182,3.18182z" fill="#b0c6dc" stroke="#000000" stroke-width="0" stroke-linecap="butt"/><path d="M129.23864,424.86582v-29.45455h0.86667v29.45455z" fill="#b0c6dc" stroke="#000000" stroke-width="0" stroke-linecap="butt"/><path d="M157.82651,424.86582v-29.45455h0.86667v29.45455z" fill="#b0c6dc" stroke="#000000" stroke-width="0" stroke-linecap="butt"/><path d="M158.69319,396.27795h-29.45455v-0.86667h29.45455z" fill="#b0c6dc" stroke="#000000" stroke-width="0" stroke-linecap="butt"/><path d="M158.69319,424.86582h-29.45455v-0.86667h29.45455z" fill="#b0c6dc" stroke="#000000" stroke-width="0" stroke-linecap="butt"/><text transform="translate(137.39591,416.9073) scale(0.5,0.5)" font-size="40" xml:space="preserve" fill="#ffffff" stroke="none" stroke-width="1" stroke-linecap="butt" font-family="&quot;03UI&quot;, Sans Serif" font-weight="normal" text-anchor="start"><tspan x="0" dy="0">0</tspan></text><path d="M90.03258,392.20521v-36h36v36z" fill="#6a8eb3" stroke="none" stroke-width="0" stroke-linecap="butt"/><path d="M93.30531,388.93248v-29.45455h29.45455v29.45455z" fill="#709bc6" stroke="none" stroke-width="0" stroke-linecap="butt"/><path d="M90.03258,392.15258l3.26842,-3.18182h29.52632l3.20526,3.18182z" fill="#5e768e" stroke="#000000" stroke-width="0" stroke-linecap="butt"/><path d="M90.09925,356.21924l3.18182,3.26842v29.52631l-3.18182,3.20526z" fill="#8ca7c1" stroke="#000000" stroke-width="0" stroke-linecap="butt"/><path d="M126.03258,392.15258l-3.18182,-3.26842v-29.52631l3.18182,-3.20526z" fill="#6f8ca8" stroke="#000000" stroke-width="0" stroke-linecap="butt"/><path d="M93.30531,359.47794h3.18182l-3.18182,3.18182z" fill="#b0c6dc" stroke="#000000" stroke-width="0" stroke-linecap="butt"/><path d="M122.75985,359.47794v3.18182l-3.18182,-3.18182z" fill="#b0c6dc" stroke="#000000" stroke-width="0" stroke-linecap="butt"/><path d="M122.75985,388.93248h-3.18182l3.18182,-3.18182z" fill="#b0c6dc" stroke="#000000" stroke-width="0" stroke-linecap="butt"/><path d="M93.30531,388.93248v-3.18182l3.18182,3.18182z" fill="#b0c6dc" stroke="#000000" stroke-width="0" stroke-linecap="butt"/><path d="M93.30531,388.93248v-29.45455h0.86667v29.45455z" fill="#b0c6dc" stroke="#000000" stroke-width="0" stroke-linecap="butt"/><path d="M121.89318,388.93248v-29.45455h0.86667v29.45455z" fill="#b0c6dc" stroke="#000000" stroke-width="0" stroke-linecap="butt"/><path d="M122.75986,360.34461h-29.45455v-0.86667h29.45455z" fill="#b0c6dc" stroke="#000000" stroke-width="0" stroke-linecap="butt"/><path d="M122.75986,388.93248h-29.45455v-0.86667h29.45455z" fill="#b0c6dc" stroke="#000000" stroke-width="0" stroke-linecap="butt"/><text transform="translate(101.46258,380.97396) scale(0.5,0.5)" font-size="40" xml:space="preserve" fill="#ffffff" stroke="none" stroke-width="1" stroke-linecap="butt" font-family="&quot;03UI&quot;, Sans Serif" font-weight="normal" text-anchor="start"><tspan x="0" dy="0">0</tspan></text><path d="M90.09925,428.27185v-36h36v36z" fill="#6a8eb3" stroke="none" stroke-width="0" stroke-linecap="butt"/><path d="M93.37198,424.99912v-29.45455h29.45455v29.45455z" fill="#709bc6" stroke="none" stroke-width="0" stroke-linecap="butt"/><path d="M90.09925,428.21922l3.26842,-3.18182h29.52632l3.20526,3.18182z" fill="#5e768e" stroke="#000000" stroke-width="0" stroke-linecap="butt"/><path d="M90.16592,392.28588l3.18182,3.26842v29.52631l-3.18182,3.20526z" fill="#8ca7c1" stroke="#000000" stroke-width="0" stroke-linecap="butt"/><path d="M126.09925,428.21922l-3.18182,-3.26842v-29.52631l3.18182,-3.20526z" fill="#6f8ca8" stroke="#000000" stroke-width="0" stroke-linecap="butt"/><path d="M93.37198,395.54458h3.18182l-3.18182,3.18182z" fill="#b0c6dc" stroke="#000000" stroke-width="0" stroke-linecap="butt"/><path d="M122.82652,395.54458v3.18182l-3.18182,-3.18182z" fill="#b0c6dc" stroke="#000000" stroke-width="0" stroke-linecap="butt"/><path d="M122.82652,424.99912h-3.18182l3.18182,-3.18182z" fill="#b0c6dc" stroke="#000000" stroke-width="0" stroke-linecap="butt"/><path d="M93.37198,424.99912v-3.18182l3.18182,3.18182z" fill="#b0c6dc" stroke="#000000" stroke-width="0" stroke-linecap="butt"/><path d="M93.37198,424.99912v-29.45455h0.86667v29.45455z" fill="#b0c6dc" stroke="#000000" stroke-width="0" stroke-linecap="butt"/><path d="M121.95985,424.99912v-29.45455h0.86667v29.45455z" fill="#b0c6dc" stroke="#000000" stroke-width="0" stroke-linecap="butt"/><path d="M122.82653,396.41125h-29.45455v-0.86667h29.45455z" fill="#b0c6dc" stroke="#000000" stroke-width="0" stroke-linecap="butt"/><path d="M122.82653,424.99912h-29.45455v-0.86667h29.45455z" fill="#b0c6dc" stroke="#000000" stroke-width="0" stroke-linecap="butt"/><text transform="translate(101.52925,417.0406) scale(0.5,0.5)" font-size="40" xml:space="preserve" fill="#ffffff" stroke="none" stroke-width="1" stroke-linecap="butt" font-family="&quot;03UI&quot;, Sans Serif" font-weight="normal" text-anchor="start"><tspan x="0" dy="0">0</tspan></text><path d="M162.03258,392.07191v-36h36v36z" fill="#6a8eb3" stroke="none" stroke-width="0" stroke-linecap="butt"/><path d="M165.30531,388.79918v-29.45455h29.45455v29.45455z" fill="#709bc6" stroke="none" stroke-width="0" stroke-linecap="butt"/><path d="M162.03258,392.01928l3.26842,-3.18182h29.52632l3.20526,3.18182z" fill="#5e768e" stroke="#000000" stroke-width="0" stroke-linecap="butt"/><path d="M162.09925,356.08594l3.18182,3.26842v29.52631l-3.18182,3.20526z" fill="#8ca7c1" stroke="#000000" stroke-width="0" stroke-linecap="butt"/><path d="M198.03258,392.01928l-3.18182,-3.26842v-29.52631l3.18182,-3.20526z" fill="#6f8ca8" stroke="#000000" stroke-width="0" stroke-linecap="butt"/><path d="M165.30531,359.34464h3.18182l-3.18182,3.18182z" fill="#b0c6dc" stroke="#000000" stroke-width="0" stroke-linecap="butt"/><path d="M194.75985,359.34464v3.18182l-3.18182,-3.18182z" fill="#b0c6dc" stroke="#000000" stroke-width="0" stroke-linecap="butt"/><path d="M194.75985,388.79918h-3.18182l3.18182,-3.18182z" fill="#b0c6dc" stroke="#000000" stroke-width="0" stroke-linecap="butt"/><path d="M165.30531,388.79918v-3.18182l3.18182,3.18182z" fill="#b0c6dc" stroke="#000000" stroke-width="0" stroke-linecap="butt"/><path d="M165.30531,388.79918v-29.45455h0.86667v29.45455z" fill="#b0c6dc" stroke="#000000" stroke-width="0" stroke-linecap="butt"/><path d="M193.89318,388.79918v-29.45455h0.86667v29.45455z" fill="#b0c6dc" stroke="#000000" stroke-width="0" stroke-linecap="butt"/><path d="M194.75986,360.21131h-29.45455v-0.86667h29.45455z" fill="#b0c6dc" stroke="#000000" stroke-width="0" stroke-linecap="butt"/><path d="M194.75986,388.79918h-29.45455v-0.86667h29.45455z" fill="#b0c6dc" stroke="#000000" stroke-width="0" stroke-linecap="butt"/><text transform="translate(175.43758,380.82191) scale(0.5,0.5)" font-size="40" xml:space="preserve" fill="#ffffff" stroke="none" stroke-width="1" stroke-linecap="butt" font-family="&quot;03UI&quot;, Sans Serif" font-weight="normal" text-anchor="start"><tspan x="0" dy="0">1</tspan></text><path d="M198.03258,428.24379v-36h36v36z" fill="#6a8eb3" stroke="none" stroke-width="0" stroke-linecap="butt"/><path d="M201.30531,424.97106v-29.45455h29.45455v29.45455z" fill="#709bc6" stroke="none" stroke-width="0" stroke-linecap="butt"/><path d="M198.03258,428.19116l3.26842,-3.18182h29.52632l3.20526,3.18182z" fill="#5e768e" stroke="#000000" stroke-width="0" stroke-linecap="butt"/><path d="M198.09925,392.25782l3.18182,3.26842v29.52631l-3.18182,3.20526z" fill="#8ca7c1" stroke="#000000" stroke-width="0" stroke-linecap="butt"/><path d="M234.03258,428.19116l-3.18182,-3.26842v-29.52631l3.18182,-3.20526z" fill="#6f8ca8" stroke="#000000" stroke-width="0" stroke-linecap="butt"/><path d="M201.30531,395.51652h3.18182l-3.18182,3.18182z" fill="#b0c6dc" stroke="#000000" stroke-width="0" stroke-linecap="butt"/><path d="M230.75985,395.51652v3.18182l-3.18182,-3.18182z" fill="#b0c6dc" stroke="#000000" stroke-width="0" stroke-linecap="butt"/><path d="M230.75985,424.97106h-3.18182l3.18182,-3.18182z" fill="#b0c6dc" stroke="#000000" stroke-width="0" stroke-linecap="butt"/><path d="M201.30531,424.97106v-3.18182l3.18182,3.18182z" fill="#b0c6dc" stroke="#000000" stroke-width="0" stroke-linecap="butt"/><path d="M201.30531,424.97106v-29.45455h0.86667v29.45455z" fill="#b0c6dc" stroke="#000000" stroke-width="0" stroke-linecap="butt"/><path d="M229.89318,424.97106v-29.45455h0.86667v29.45455z" fill="#b0c6dc" stroke="#000000" stroke-width="0" stroke-linecap="butt"/><path d="M230.75986,396.38319h-29.45455v-0.86667h29.45455z" fill="#b0c6dc" stroke="#000000" stroke-width="0" stroke-linecap="butt"/><path d="M230.75986,424.97106h-29.45455v-0.86667h29.45455z" fill="#b0c6dc" stroke="#000000" stroke-width="0" stroke-linecap="butt"/><text transform="translate(211.43758,416.99379) scale(0.5,0.5)" font-size="40" xml:space="preserve" fill="#ffffff" stroke="none" stroke-width="1" stroke-linecap="butt" font-family="&quot;03UI&quot;, Sans Serif" font-weight="normal" text-anchor="start"><tspan x="0" dy="0">1</tspan></text><path d="M197.89924,392.00526v-36h36v36z" fill="#6a8eb3" stroke="none" stroke-width="0" stroke-linecap="butt"/><path d="M201.17197,388.73253v-29.45455h29.45455v29.45455z" fill="#709bc6" stroke="none" stroke-width="0" stroke-linecap="butt"/><path d="M197.89924,391.95263l3.26842,-3.18182h29.52632l3.20526,3.18182z" fill="#5e768e" stroke="#000000" stroke-width="0" stroke-linecap="butt"/><path d="M197.96591,356.01929l3.18182,3.26842v29.52631l-3.18182,3.20526z" fill="#8ca7c1" stroke="#000000" stroke-width="0" stroke-linecap="butt"/><path d="M233.89924,391.95263l-3.18182,-3.26842v-29.52631l3.18182,-3.20526z" fill="#6f8ca8" stroke="#000000" stroke-width="0" stroke-linecap="butt"/><path d="M201.17197,359.27799h3.18182l-3.18182,3.18182z" fill="#b0c6dc" stroke="#000000" stroke-width="0" stroke-linecap="butt"/><path d="M230.62651,359.27799v3.18182l-3.18182,-3.18182z" fill="#b0c6dc" stroke="#000000" stroke-width="0" stroke-linecap="butt"/><path d="M230.62651,388.73253h-3.18182l3.18182,-3.18182z" fill="#b0c6dc" stroke="#000000" stroke-width="0" stroke-linecap="butt"/><path d="M201.17197,388.73253v-3.18182l3.18182,3.18182z" fill="#b0c6dc" stroke="#000000" stroke-width="0" stroke-linecap="butt"/><path d="M201.17197,388.73253v-29.45455h0.86667v29.45455z" fill="#b0c6dc" stroke="#000000" stroke-width="0" stroke-linecap="butt"/><path d="M229.75984,388.73253v-29.45455h0.86667v29.45455z" fill="#b0c6dc" stroke="#000000" stroke-width="0" stroke-linecap="butt"/><path d="M230.62652,360.14466h-29.45455v-0.86667h29.45455z" fill="#b0c6dc" stroke="#000000" stroke-width="0" stroke-linecap="butt"/><path d="M230.62652,388.73253h-29.45455v-0.86667h29.45455z" fill="#b0c6dc" stroke="#000000" stroke-width="0" stroke-linecap="butt"/><text transform="translate(209.01424,380.63026) scale(0.5,0.5)" font-size="40" xml:space="preserve" fill="#ffffff" stroke="none" stroke-width="1" stroke-linecap="butt" font-family="&quot;03UI&quot;, Sans Serif" font-weight="normal" text-anchor="start"><tspan x="0" dy="0">2</tspan></text><path d="M233.96591,428.22977v-36h36v36z" fill="#b36969" stroke="none" stroke-width="0" stroke-linecap="butt"/><path d="M237.23864,424.95703v-29.45455h29.45455v29.45455z" fill="#c77171" stroke="none" stroke-width="0" stroke-linecap="butt"/><path d="M233.96591,428.17714l3.26842,-3.18182h29.52632l3.20526,3.18182z" fill="#8f5e5e" stroke="#000000" stroke-width="0" stroke-linecap="butt"/><path d="M234.03258,392.2438l3.18182,3.26842v29.52631l-3.18182,3.20526z" fill="#c28d8d" stroke="#000000" stroke-width="0" stroke-linecap="butt"/><path d="M269.96591,428.17714l-3.18182,-3.26842v-29.52631l3.18182,-3.20526z" fill="#a86f6f" stroke="#000000" stroke-width="0" stroke-linecap="butt"/><path d="M237.23864,395.5025h3.18182l-3.18182,3.18182z" fill="#dbafaf" stroke="#000000" stroke-width="0" stroke-linecap="butt"/><path d="M266.69318,395.5025v3.18182l-3.18182,-3.18182z" fill="#dbafaf" stroke="#000000" stroke-width="0" stroke-linecap="butt"/><path d="M266.69318,424.95703h-3.18182l3.18182,-3.18182z" fill="#dbafaf" stroke="#000000" stroke-width="0" stroke-linecap="butt"/><path d="M237.23864,424.95703v-3.18182l3.18182,3.18182z" fill="#dbafaf" stroke="#000000" stroke-width="0" stroke-linecap="butt"/><path d="M237.23864,424.95703v-29.45455h0.86667v29.45455z" fill="#dbafaf" stroke="#000000" stroke-width="0" stroke-linecap="butt"/><path d="M265.82651,424.95703v-29.45455h0.86667v29.45455z" fill="#dbafaf" stroke="#000000" stroke-width="0" stroke-linecap="butt"/><path d="M266.69319,396.36917h-29.45455v-0.86667h29.45455z" fill="#dbafaf" stroke="#000000" stroke-width="0" stroke-linecap="butt"/><path d="M266.69319,424.95703h-29.45455v-0.86667h29.45455z" fill="#dbafaf" stroke="#000000" stroke-width="0" stroke-linecap="butt"/><path d="M126.09091,355.8943v-35.875h35.875v35.875z" fill-opacity="0.41569" fill="#722bff" stroke="#000000" stroke-width="0" stroke-linecap="butt"/><path d="M161.89924,355.88027v-35.875h35.875v35.875z" fill-opacity="0.41569" fill="#722bff" stroke="#000000" stroke-width="0" stroke-linecap="butt"/><path d="M162.15758,391.89429v-35.875h35.875v35.875z" fill-opacity="0.41569" fill="#722bff" stroke="#000000" stroke-width="0" stroke-linecap="butt"/><path d="M198.09925,392.25782v-35.875h35.875v35.875z" fill-opacity="0.41569" fill="#722bff" stroke="#000000" stroke-width="0" stroke-linecap="butt"/><path d="M198.15758,428.24379v-35.875h35.875v35.875z" fill-opacity="0.41569" fill="#722bff" stroke="#000000" stroke-width="0" stroke-linecap="butt"/></g></g></svg>