<svg version="1.1" xmlns="http://www.w3.org/2000/svg" xmlns:xlink="http://www.w3.org/1999/xlink" width="34.10011" height="34.10012" viewBox="0,0,34.10011,34.10012"><defs><radialGradient cx="180.00005" cy="320.00001" r="13.36667" gradientUnits="userSpaceOnUse" id="color-1"><stop offset="0" stop-color="#ebf5f5" stop-opacity="0"/><stop offset="1" stop-color="#ebf5f5" stop-opacity="0.15686"/></radialGradient></defs><g transform="translate(-162.94995,-302.94995)"><g stroke-miterlimit="10"><path d="M165.21427,320.00001c0,-8.16593 6.61979,-14.78571 14.78572,-14.78571c8.16592,0 14.78572,6.61979 14.78572,14.78571c0,8.16593 -6.61979,14.78571 -14.78572,14.78571c-8.16592,0 -14.78572,-6.61979 -14.78572,-14.78571z" fill="none" stroke-opacity="0.52157" stroke="#ebf6f6" stroke-width="3"/><path d="M165.21427,320.00001c0,-8.16593 6.61979,-14.78571 14.78572,-14.78571c8.16592,0 14.78572,6.61979 14.78572,14.78571c0,8.16593 -6.61979,14.78571 -14.78572,14.78571c-8.16592,0 -14.78572,-6.61979 -14.78572,-14.78571z" fill="none" stroke-opacity="0.85098" stroke="#dee0e0" stroke-width="2"/><path d="M165.21428,320.00001c0,-8.16592 6.61979,-14.78571 14.78571,-14.78571c8.16592,0 14.78571,6.61979 14.78571,14.78571c0,8.16592 -6.61979,14.78571 -14.78571,14.78571c-8.16592,0 -14.78571,-6.61979 -14.78571,-14.78571z" fill="none" stroke="#b0eede" stroke-width="1"/><path d="M166.63333,320.00001c0,-7.38221 5.98446,-13.36667 13.36667,-13.36667c7.38221,0 13.36667,5.98446 13.36667,13.36667c0,7.38221 -5.98446,13.36667 -13.36667,13.36667c-7.38221,0 -13.36667,-5.98446 -13.36667,-13.36667z" fill="url(#color-1)" stroke="none" stroke-width="0"/><path d="M164.20005,319.99995c0,-8.72617 7.07377,-15.8 15.8,-15.8c8.72617,0 15.8,7.07377 15.8,15.8c0,8.72617 -7.07377,15.8 -15.8,15.8c-8.72617,0 -15.8,-7.07377 -15.8,-15.8z" fill="none" stroke-opacity="0.87451" stroke="#f0fdfd" stroke-width="1"/><path d="M163.19995,320c0,-9.27846 7.52159,-16.80005 16.80005,-16.80005c9.27846,0 16.80005,7.52159 16.80005,16.80005c0,9.27846 -7.52159,16.80007 -16.80005,16.80007c-9.27846,0 -16.80005,-7.52159 -16.80005,-16.80007z" fill="none" stroke="#61eb9b" stroke-width="0.5"/></g></g></svg>