<svg version="1.1" xmlns="http://www.w3.org/2000/svg" xmlns:xlink="http://www.w3.org/1999/xlink" width="257.75" height="179.21512" viewBox="0,0,257.75,179.21512"><g transform="translate(-50.25,-229.51744)"><g stroke-miterlimit="10"><path d="M56.99999,376.65c0,-35.63859 0,-84.7021 0,-104c0,-13.27141 21.45311,-34.88256 40.05001,-34.88256c30.07753,0 122.52553,0 174.5,0c21.77801,0 36.45,20.42465 36.45,36.38256c0,18.78226 0,64.97726 0,98c0,20.93936 -16.83397,36.58256 -32.45,36.58256c-27.94208,0 -121.24748,0 -176.5,0c-24.88425,0 -42.05,-13.36107 -42.05,-32.08256z" fill="#0e151c" fill-rule="nonzero" stroke="#8fc1e7" stroke-width="0" stroke-linecap="butt" stroke-linejoin="miter"/><path d="M52,370.15c0,-35.63859 0,-84.7021 0,-104c0,-13.27141 21.45311,-34.88256 40.05001,-34.88256c30.07753,0 122.52553,0 174.5,0c21.77801,0 36.45,20.42465 36.45,36.38256c0,18.78226 0,64.97726 0,98c0,20.93936 -16.83397,36.58256 -32.45,36.58256c-27.94208,0 -121.24748,0 -176.5,0c-24.88425,0 -42.05,-13.36107 -42.05,-32.08256z" fill="#252f36" fill-rule="nonzero" stroke="#8fc1e7" stroke-width="3.5" stroke-linecap="butt" stroke-linejoin="miter"/><text transform="translate(102.21224,280.9) scale(0.99838,0.99838)" font-size="40" xml:space="preserve" fill="#8fc1e7" fill-rule="nonzero" stroke="none" stroke-width="1" stroke-linecap="butt" stroke-linejoin="miter" font-family="&quot;Natsusemimaru&quot;, Sans Serif" font-weight="normal" text-anchor="start"><tspan x="0" dy="0">クリア！</tspan></text><path d="M142.75002,375.12143c0,-7.07749 0,-16.64637 0,-20.6c0,-3.45081 4.93114,-7.87143 9.57,-7.87143c9.37469,0 43.61192,0 59.6,0c5.08971,0 8.33,3.64533 8.33,6.67143c0,4.1406 0,15.44882 0,23c0,4.19698 -3.30082,7.23333 -6.73,7.23333c-8.69833,0 -47.09036,0 -63.4,0c-4.54086,0 -7.37,-3.64693 -7.37,-8.43333z" fill="#374a57" fill-rule="nonzero" stroke="#881a1a" stroke-width="0" stroke-linecap="butt" stroke-linejoin="miter"/><path d="M138.75002,371.62143c0,-7.07749 0,-16.64637 0,-20.6c0,-3.45081 4.93114,-7.87143 9.57,-7.87143c9.37469,0 43.61192,0 59.6,0c5.08971,0 8.33,3.64533 8.33,6.67143c0,4.1406 0,15.44882 0,23c0,4.19698 -3.30082,7.23333 -6.73,7.23333c-8.69833,0 -47.09036,0 -63.4,0c-4.54086,0 -7.37,-3.64693 -7.37,-8.43333z" fill="#d64f40" fill-rule="nonzero" stroke="#881a1a" stroke-width="3" stroke-linecap="butt" stroke-linejoin="miter"/><text transform="translate(157.50002,367.37113) scale(0.5,0.5)" font-size="40" xml:space="preserve" fill="#ffe5e5" fill-rule="nonzero" stroke="none" stroke-width="1" stroke-linecap="butt" stroke-linejoin="miter" font-family="&quot;03UI&quot;, Sans Serif" font-weight="normal" text-anchor="start"><tspan x="0" dy="0">次へ</tspan></text><text transform="translate(142.70778,306.69781) scale(0.57584,0.57584)" font-size="40" xml:space="preserve" fill="#8fc1e7" fill-rule="nonzero" stroke="none" stroke-width="1" stroke-linecap="butt" stroke-linejoin="miter" font-family="&quot;Natsusemimaru&quot;, Sans Serif" font-weight="normal" text-anchor="start"><tspan x="0" dy="0">Level 1</tspan></text><path d="M146.44092,311.00792l4.025,8.33625l9.00454,1.3325l-6.50682,6.48375l1.52727,9.165l-8.05,-4.3225l-8.05,4.3225l1.52727,-9.165l-6.50682,-6.48375l9.00455,-1.3325z" fill="#f6da18" fill-rule="evenodd" stroke="#000000" stroke-width="1.28" stroke-linecap="round" stroke-linejoin="round"/><path d="M177.00001,311.00792l4.025,8.33625l9.00454,1.3325l-6.50682,6.48375l1.52727,9.165l-8.05,-4.3225l-8.05,4.3225l1.52727,-9.165l-6.50682,-6.48375l9.00455,-1.3325z" fill="#808080" fill-rule="evenodd" stroke="#000000" stroke-width="1.28" stroke-linecap="round" stroke-linejoin="round"/><path d="M207.5591,311.00792l4.025,8.33625l9.00454,1.3325l-6.50682,6.48375l1.52727,9.165l-8.05,-4.3225l-8.05,4.3225l1.52727,-9.165l-6.50682,-6.48375l9.00455,-1.3325z" fill="#808080" fill-rule="evenodd" stroke="#000000" stroke-width="1.28" stroke-linecap="round" stroke-linejoin="round"/></g></g></svg>