<svg version="1.1" xmlns="http://www.w3.org/2000/svg" xmlns:xlink="http://www.w3.org/1999/xlink" width="46.27996" height="48.75969" viewBox="0,0,46.27996,48.75969"><g transform="translate(-156.86002,-295.62019)"><g stroke-miterlimit="10"><path d="" fill="#31648a" stroke="#000000" stroke-width="0"/><path d="" fill="#31648a" stroke="#000000" stroke-width="0"/><path d="M159.93704,331.28076v-20.13165l9.95846,-9.93061h20.11177l10.01413,9.84114v20.04217l-10.01413,10.20103h-20.04217z" fill="#272828" stroke="#000000" stroke-width="0"/><path d="M156.86002,331.24019v-20.04217h3.07702v20.04217z" fill="#272828" stroke="#000000" stroke-width="0"/><path d="M200.02139,331.15702v-20.04217h3.07701v20.04217z" fill="#272828" stroke="#000000" stroke-width="0"/><path d="M189.95872,301.21853h-20.04217v-3.07702h20.04217z" fill="#272828" stroke="#000000" stroke-width="0"/><path d="M189.95872,344.37989h-20.04217v-3.07702h20.04217z" fill="#272828" stroke="#000000" stroke-width="0"/><path d="M169.89261,301.21297l-9.98504,9.98504l-1.53297,-1.53297l9.98504,-9.98504z" fill="#272828" stroke="#000000" stroke-width="0"/><path d="M200.04457,311.19802l-9.98505,-9.98504l1.53298,-1.53297l9.98504,9.98505z" fill="#272828" stroke="#000000" stroke-width="0"/><path d="M168.4428,342.79979l-9.98504,-9.98504l1.53297,-1.53297l9.98504,9.98504z" fill="#272828" stroke="#000000" stroke-width="0"/><path d="M201.49438,332.64842l-9.98505,9.98504l-1.53297,-1.53297l9.98504,-9.98504z" fill="#272828" stroke="#000000" stroke-width="0"/><path d="M159.97862,328.75946v-20.13165l9.95846,-9.93062h20.11177l10.01412,9.84115v20.04217l-10.01412,10.20102h-20.04218z" fill="#216394" stroke="#000000" stroke-width="0"/><path d="M156.9016,328.71889v-20.04217h3.07701v20.04217z" fill="#112063" stroke="#000000" stroke-width="0"/><path d="M200.06296,328.6357v-20.04217h3.07701v20.04217z" fill="#112063" stroke="#000000" stroke-width="0"/><path d="M190.0003,298.69723h-20.04217v-3.07701h20.04217z" fill="#112063" stroke="#000000" stroke-width="0"/><path d="M190.0003,341.8586h-20.04216v-3.07702h20.04216z" fill="#112063" stroke="#000000" stroke-width="0"/><path d="M169.93418,298.69167l-9.98504,9.98504l-1.53297,-1.53297l9.98504,-9.98504z" fill="#232d5b" stroke="#000000" stroke-width="0"/><path d="M200.08614,308.67672l-9.98504,-9.98505l1.53297,-1.53297l9.98504,9.98504z" fill="#232d5b" stroke="#000000" stroke-width="0"/><path d="M168.48438,340.27851l-9.98504,-9.98505l1.53297,-1.53297l9.98504,9.98504z" fill="#232d5b" stroke="#000000" stroke-width="0"/><path d="M201.61912,330.21029l-9.98504,9.98504l-1.53297,-1.53297l9.98504,-9.98504z" fill="#232d5b" stroke="#000000" stroke-width="0"/><path d="M160.00773,324.01135v-12.8902h40.00118v12.8902z" fill="#92a1e7" stroke="#000000" stroke-width="0"/><path d="M179.96674,324.01135v-9.50321h20.04217v9.50321z" fill="#ccd0e4" stroke="#000000" stroke-width="0"/><path d="M160.00773,320.62435v-9.50321h20.04217v9.50321z" fill="#ccd0e4" stroke="#000000" stroke-width="0"/><path d="M173.00867,298.73877h14.02423v40.00118h-14.02423z" fill="#3f225d" stroke="#000000" stroke-width="0"/><path d="M173.57569,298.73877h12.89019v40.00118h-12.89019z" fill="#7d8edd" stroke="#000000" stroke-width="0"/><path d="M163.95461,326.77169c0,-5.68233 0,-12.85212 0,-16.1379c0,-3.37197 4.60377,-7.96058 7.98289,-7.96058c3.28601,0 10.44656,0 16.12197,0c4.47554,0 8.02751,4.53996 8.02751,7.88884c0,3.26146 0,10.38144 0,16.06618c0,4.54798 -3.5532,8.17733 -8.02751,8.17733c-5.65556,0 -12.7828,0 -16.06618,0c-3.39697,0 -8.03867,-3.55485 -8.03867,-8.03389z" fill="#244f6f" stroke="#14476e" stroke-width="1"/><path d="M190.0003,341.8586h-20.04216v-0.85119h20.04216z" fill="#0f1637" stroke="#000000" stroke-width="0"/><path d="M190.0003,296.47139h-20.04216v-0.8512h20.04216z" fill="#0f1637" stroke="#000000" stroke-width="0"/><path d="M203.13998,308.59353v20.04217h-0.8512v-20.04217z" fill="#0f1637" stroke="#000000" stroke-width="0"/><path d="M157.7528,308.67672v20.04217h-0.85119v-20.04217z" fill="#0f1637" stroke="#000000" stroke-width="0"/><path d="M168.48438,340.27851l-9.98504,-9.98505l0.60189,-0.60188l9.98504,9.98505z" fill="#2f5459" stroke="#000000" stroke-width="0"/><path d="M201.01723,307.74566l-9.98505,-9.98504l0.60189,-0.60188l9.98504,9.98503z" fill="#2f5459" stroke="#000000" stroke-width="0"/><path d="M158.41617,307.14376l9.98503,-9.98504l0.60189,0.60188l-9.98504,9.98504z" fill="#2f5459" stroke="#000000" stroke-width="0"/><path d="M191.03219,339.59346l9.98504,-9.98504l0.60189,0.60188l-9.98504,9.98504z" fill="#2f5459" stroke="#000000" stroke-width="0"/><path d="M164.39815,318.57624l15.60186,-15.60186l15.60186,15.60186l-15.60186,15.60186z" fill="#14476e" stroke="#27b368" stroke-width="0"/><path d="M187.10499,320.46193c-3.12606,1.78306 -7.45761,4.25371 -9.16527,5.22772c-1.39131,0.79358 -3.12249,0.33384 -3.12249,-1.66503c0,-3.51334 0,-8.73101 0,-10.79046c0,-1.6678 1.82535,-2.75185 3.26745,-1.92929c1.71971,0.9809 5.99213,3.41782 9.07178,5.17441c1.979,1.12879 1.95542,2.83795 -0.05147,3.98265z" fill="#27b368" stroke="#4fc27e" stroke-width="1.5"/><text transform="translate(168.26963,333.9015) scale(0.19799,0.19799)" font-size="40" xml:space="preserve" fill="#27b368" stroke="#27b368" stroke-width="1" font-family="&quot;03UI&quot;, Sans Serif" font-weight="normal" text-anchor="start"><tspan x="0" dy="0">実験的</tspan></text></g></g></svg>