<svg version="1.1" xmlns="http://www.w3.org/2000/svg" xmlns:xlink="http://www.w3.org/1999/xlink" width="32.57144" height="32.57142" viewBox="0,0,32.57144,32.57142"><defs><radialGradient cx="180.00004" cy="320.00001" r="13.36667" gradientUnits="userSpaceOnUse" id="color-1"><stop offset="0" stop-color="#ebf5f5" stop-opacity="0"/><stop offset="1" stop-color="#ebf5f5" stop-opacity="0.15686"/></radialGradient></defs><g transform="translate(-163.71427,-303.7143)"><g stroke-miterlimit="10"><path d="M165.21427,320.00001c0,-8.16593 6.61979,-14.78571 14.78572,-14.78571c8.16592,0 14.78572,6.61979 14.78572,14.78571c0,8.16593 -6.61979,14.78571 -14.78572,14.78571c-8.16592,0 -14.78572,-6.61979 -14.78572,-14.78571z" fill="none" stroke-opacity="0.52157" stroke="#ebf6f6" stroke-width="3"/><path d="M165.21427,320.00001c0,-8.16593 6.61979,-14.78571 14.78572,-14.78571c8.16592,0 14.78572,6.61979 14.78572,14.78571c0,8.16593 -6.61979,14.78571 -14.78572,14.78571c-8.16592,0 -14.78572,-6.61979 -14.78572,-14.78571z" fill="none" stroke-opacity="0.85098" stroke="#dee0e0" stroke-width="2"/><path d="M165.21428,320.00001c0,-8.16592 6.61979,-14.78571 14.78571,-14.78571c8.16592,0 14.78571,6.61979 14.78571,14.78571c0,8.16592 -6.61979,14.78571 -14.78571,14.78571c-8.16592,0 -14.78571,-6.61979 -14.78571,-14.78571z" fill="none" stroke="#b0eede" stroke-width="1"/><path d="M166.63333,320.00001c0,-7.38221 5.98446,-13.36667 13.36667,-13.36667c7.38221,0 13.36667,5.98446 13.36667,13.36667c0,7.38221 -5.98446,13.36667 -13.36667,13.36667c-7.38221,0 -13.36667,-5.98446 -13.36667,-13.36667z" fill="url(#color-1)" stroke="none" stroke-width="0"/><path d="M172.00004,320.00001c0,-4.41831 3.58166,-8 8,-8c4.41831,0 8,3.58166 8,8c0,4.41831 -3.58166,8 -8,8c-4.41831,0 -8,-3.58166 -8,-8z" fill="none" stroke-opacity="0.87451" stroke="#f0fdfd" stroke-width="1"/><path d="M174.73337,320.00001c0,-2.90871 2.35795,-5.26666 5.26666,-5.26666c2.90871,0 5.26666,2.35795 5.26666,5.26666c0,2.90871 -2.35795,5.26666 -5.26666,5.26666c-2.90871,0 -5.26666,-2.35795 -5.26666,-5.26666z" fill="none" stroke="#61eb9b" stroke-width="0.5"/></g></g></svg>