<svg version="1.1" xmlns="http://www.w3.org/2000/svg" xmlns:xlink="http://www.w3.org/1999/xlink" width="79.5" height="83.75967" viewBox="0,0,79.5,83.75967"><g transform="translate(-140.2143,-280.28572)"><g stroke-miterlimit="10"><path d="M145.50002,341.54368v-34.58227l17.1067,-17.05888h34.54812l17.20233,16.90518v34.42857l-17.20233,17.52339h-34.42857z" fill="#272828" stroke="#000000" stroke-width="0"/><path d="M140.2143,341.47396v-34.42857h5.28571v34.42857z" fill="#272828" stroke="#000000" stroke-width="0"/><path d="M214.35716,341.3311v-34.42857h5.28571v34.42857z" fill="#272828" stroke="#000000" stroke-width="0"/><path d="M197.07145,289.90252h-34.42857v-5.28571h34.42857z" fill="#272828" stroke="#000000" stroke-width="0"/><path d="M197.07145,364.04539h-34.42856v-5.28572h34.42856z" fill="#272828" stroke="#000000" stroke-width="0"/><path d="M162.60176,289.89302l-17.15236,17.15236l-2.63335,-2.63335l17.15236,-17.15236z" fill="#272828" stroke="#000000" stroke-width="0"/><path d="M214.39698,307.04539l-17.15237,-17.15237l2.63335,-2.63335l17.15237,17.15237z" fill="#272828" stroke="#000000" stroke-width="0"/><path d="M160.11127,361.3311l-17.15237,-17.15237l2.63335,-2.63335l17.15237,17.15237z" fill="#272828" stroke="#000000" stroke-width="0"/><path d="M216.88748,343.89302l-17.15237,17.15236l-2.63335,-2.63335l17.15236,-17.15237z" fill="#272828" stroke="#000000" stroke-width="0"/><path d="M145.57144,337.2126v-34.58227l17.1067,-17.05888h34.54812l17.20233,16.90518v34.42857l-17.20233,17.52339h-34.42857z" fill="#216394" stroke="#000000" stroke-width="0"/><path d="" fill="#31648a" stroke="#000000" stroke-width="0"/><path d="M140.28572,337.14288v-34.42857h5.28571v34.42857z" fill="#112063" stroke="#000000" stroke-width="0"/><path d="M214.42858,337.00001v-34.42857h5.28571v34.42857z" fill="#112063" stroke="#000000" stroke-width="0"/><path d="M197.14287,285.57145h-34.42857v-5.28571h34.42857z" fill="#112063" stroke="#000000" stroke-width="0"/><path d="M197.14287,359.71431h-34.42856v-5.28572h34.42856z" fill="#112063" stroke="#000000" stroke-width="0"/><path d="M162.67317,285.56192l-17.15236,17.15236l-2.63335,-2.63335l17.15236,-17.15236z" fill="#232d5b" stroke="#000000" stroke-width="0"/><path d="M214.4684,302.7143l-17.15237,-17.15237l2.63335,-2.63335l17.15237,17.15237z" fill="#232d5b" stroke="#000000" stroke-width="0"/><path d="M160.18269,357.00001l-17.15237,-17.15237l2.63335,-2.63335l17.15237,17.15237z" fill="#232d5b" stroke="#000000" stroke-width="0"/><path d="M217.10175,339.7048l-17.15237,17.15236l-2.63335,-2.63335l17.15236,-17.15237z" fill="#232d5b" stroke="#000000" stroke-width="0"/><path d="M145.62144,329.05625v-22.14286h68.71429v22.14286z" fill="#92a1e7" stroke="#000000" stroke-width="0"/><path d="M179.90716,329.05625v-16.32467h34.42857v16.32467z" fill="#ccd0e4" stroke="#000000" stroke-width="0"/><path d="M145.62144,323.23805v-16.32467h34.42857v16.32467z" fill="#ccd0e4" stroke="#000000" stroke-width="0"/><path d="M167.95455,285.64286h24.09091v68.71428h-24.09091z" fill="#3f225d" stroke="#000000" stroke-width="0"/><path d="M168.92858,285.64286h22.14286v68.71428h-22.14286z" fill="#7d8edd" stroke="#000000" stroke-width="0"/><path d="M151.7143,334.14147c0,-10.00417 0,-22.62712 0,-28.41199c0,-5.93659 8.10528,-14.01518 14.05446,-14.01518c5.78525,0 18.39195,0 28.38393,0c7.87953,0 14.13304,7.99293 14.13304,13.8889c0,5.74204 0,18.2773 0,28.28571c0,8.00706 -6.25567,14.39681 -14.13304,14.39681c-9.95703,0 -22.50506,0 -28.28571,0c-5.98061,0 -14.15268,-6.25858 -14.15268,-14.14426z" fill="#244f6f" stroke="#000000" stroke-width="0"/><path d="M197.14287,359.71431h-34.42856v-1.46219h34.42856z" fill="#0f1637" stroke="#000000" stroke-width="0"/><path d="M197.14287,281.74791h-34.42856v-1.46219h34.42856z" fill="#0f1637" stroke="#000000" stroke-width="0"/><path d="M219.7143,302.57145v34.42856h-1.46219v-34.42856z" fill="#0f1637" stroke="#000000" stroke-width="0"/><path d="M141.74791,302.7143v34.42856h-1.46218v-34.42856z" fill="#0f1637" stroke="#000000" stroke-width="0"/><path d="M160.18269,357.00001l-17.15237,-17.15237l1.03392,-1.03392l17.15237,17.15237z" fill="#2f5459" stroke="#000000" stroke-width="0"/><path d="M216.06783,301.11488l-17.15237,-17.15236l1.03392,-1.03392l17.15237,17.15236z" fill="#2f5459" stroke="#000000" stroke-width="0"/><path d="M142.88745,300.08095l17.15236,-17.15237l1.03392,1.03392l-17.15237,17.15237z" fill="#2f5459" stroke="#000000" stroke-width="0"/><path d="M198.91547,355.82324l17.15237,-17.15237l1.03392,1.03392l-17.15236,17.15236z" fill="#2f5459" stroke="#000000" stroke-width="0"/><path d="M158.21746,302.04756c4.16521,-5.18719 17.4163,-1.46321 29.59711,8.31775c12.18083,9.78095 18.67876,21.91504 14.51353,27.10223c-4.16521,5.18719 -17.4163,1.46321 -29.59711,-8.31775c-12.18083,-9.78095 -18.67876,-21.91504 -14.51353,-27.10223z" fill="#14476e" stroke="#000000" stroke-width="0"/><path d="M177.20017,291.63922c6.61315,-0.72265 13.34983,11.28054 15.04678,26.80986c1.69696,15.52933 -2.2884,28.70417 -8.90155,29.4268c-6.61315,0.72265 -13.34983,-11.28055 -15.04678,-26.80987c-1.69696,-15.52933 2.2884,-28.70417 8.90156,-29.4268z" fill="#14476e" stroke="#000000" stroke-width="0"/><path d="M197.98277,297.70223c5.18719,4.16521 1.46322,17.4163 -8.31774,29.59711c-9.78095,12.18083 -21.91505,18.67876 -27.10224,14.51352c-5.18719,-4.16521 -1.46321,-17.41629 8.31775,-29.59711c9.78095,-12.18083 21.91505,-18.67876 27.10223,-14.51353z" fill="#14476e" stroke="#000000" stroke-width="0"/><path d="M208.39111,316.68494c0.72265,6.61315 -11.28054,13.34983 -26.80986,15.04678c-15.52933,1.69696 -28.70417,-2.28843 -29.4268,-8.90156c-0.72265,-6.61315 11.28054,-13.34983 26.80986,-15.04678c15.52933,-1.69696 28.70416,2.28841 29.4268,8.90156z" fill="#14476e" stroke="#000000" stroke-width="0"/><path d="M189.39264,321.29353c-4.47928,2.55491 -10.68588,6.09506 -13.13274,7.49071c-1.99358,1.13711 -4.47417,0.47836 -4.47417,-2.38579c0,-5.03419 0,-12.51051 0,-15.46145c0,-2.38976 2.61551,-3.94307 4.68187,-2.76445c2.46415,1.40551 8.58601,4.89733 12.99878,7.41431c2.83568,1.61743 2.80188,4.06645 -0.07374,5.70666z" fill="#8ec0e6" stroke="#478fc6" stroke-width="2.5"/></g></g></svg>