<svg version="1.1" xmlns="http://www.w3.org/2000/svg" xmlns:xlink="http://www.w3.org/1999/xlink" width="49.1001" height="49.10013" viewBox="0,0,49.1001,49.10013"><defs><radialGradient cx="180.00005" cy="320.00001" r="13.36667" gradientUnits="userSpaceOnUse" id="color-1"><stop offset="0" stop-color="#ebf5f5" stop-opacity="0"/><stop offset="1" stop-color="#ebf5f5" stop-opacity="0.15686"/></radialGradient></defs><g transform="translate(-155.44995,-295.44995)"><g stroke-miterlimit="10"><path d="M165.21427,320.00001c0,-8.16593 6.61979,-14.78571 14.78572,-14.78571c8.16592,0 14.78572,6.61979 14.78572,14.78571c0,8.16593 -6.61979,14.78571 -14.78572,14.78571c-8.16592,0 -14.78572,-6.61979 -14.78572,-14.78571z" fill="none" stroke-opacity="0.52157" stroke="#ebf6f6" stroke-width="3"/><path d="M165.21427,320.00001c0,-8.16593 6.61979,-14.78571 14.78572,-14.78571c8.16592,0 14.78572,6.61979 14.78572,14.78571c0,8.16593 -6.61979,14.78571 -14.78572,14.78571c-8.16592,0 -14.78572,-6.61979 -14.78572,-14.78571z" fill="none" stroke-opacity="0.85098" stroke="#dee0e0" stroke-width="2"/><path d="M165.21428,320.00001c0,-8.16592 6.61979,-14.78571 14.78571,-14.78571c8.16592,0 14.78571,6.61979 14.78571,14.78571c0,8.16592 -6.61979,14.78571 -14.78571,14.78571c-8.16592,0 -14.78571,-6.61979 -14.78571,-14.78571z" fill="none" stroke="#b0eede" stroke-width="1"/><path d="M166.63333,320.00001c0,-7.38221 5.98446,-13.36667 13.36667,-13.36667c7.38221,0 13.36667,5.98446 13.36667,13.36667c0,7.38221 -5.98446,13.36667 -13.36667,13.36667c-7.38221,0 -13.36667,-5.98446 -13.36667,-13.36667z" fill="url(#color-1)" stroke="none" stroke-width="0"/><path d="M160.70005,319.99995c0,-10.65919 8.64074,-19.3 19.3,-19.3c10.65919,0 19.3,8.64074 19.3,19.3c0,10.65919 -8.64074,19.3 -19.3,19.3c-10.65919,0 -19.3,-8.64074 -19.3,-19.3z" fill="none" stroke-opacity="0.87451" stroke="#f0fdfd" stroke-width="1"/><path d="M155.69995,320c0,-13.42062 10.87943,-24.30005 24.30005,-24.30005c13.42062,0 24.30005,10.87943 24.30005,24.30005c0,13.42062 -10.87943,24.30008 -24.30005,24.30008c-13.42062,0 -24.30005,-10.87943 -24.30005,-24.30008z" fill="none" stroke-opacity="0.8" stroke="#60eb9a" stroke-width="0.5"/></g></g></svg>