<svg version="1.1" xmlns="http://www.w3.org/2000/svg" xmlns:xlink="http://www.w3.org/1999/xlink" width="36" height="36.06664" viewBox="0,0,36,36.06664"><g transform="translate(-162,-301.96668)"><g stroke-miterlimit="10"><path d="M162,338.0193v-36h36v36z" fill="#6a8eb3" stroke="none" stroke-width="0"/><path d="M165.27273,334.74657v-29.45455h29.45455v29.45455z" fill="#709bc6" stroke="none" stroke-width="0"/><path d="M162,337.96667l3.26842,-3.18182h29.52632l3.20526,3.18182z" fill="#5e768e" stroke="#000000" stroke-width="0"/><path d="M162.06667,302.03333l3.18182,3.26842v29.52631l-3.18182,3.20526z" fill="#8ca7c1" stroke="#000000" stroke-width="0"/><path d="M198,337.96667l-3.18182,-3.26842v-29.52631l3.18182,-3.20526z" fill="#6f8ca8" stroke="#000000" stroke-width="0"/><path d="M165.27273,305.29203h3.18182l-3.18182,3.18182z" fill="#b0c6dc" stroke="#000000" stroke-width="0"/><path d="M194.72727,305.29203v3.18182l-3.18182,-3.18182z" fill="#b0c6dc" stroke="#000000" stroke-width="0"/><path d="M194.72727,334.74657h-3.18182l3.18182,-3.18182z" fill="#b0c6dc" stroke="#000000" stroke-width="0"/><path d="M165.27273,334.74657v-3.18182l3.18182,3.18182z" fill="#b0c6dc" stroke="#000000" stroke-width="0"/><path d="M165.27273,334.74657v-29.45455h0.86667v29.45455z" fill="#b0c6dc" stroke="#000000" stroke-width="0"/><path d="M193.8606,334.74657v-29.45455h0.86667v29.45455z" fill="#b0c6dc" stroke="#000000" stroke-width="0"/><path d="M194.72728,306.1587h-29.45455v-0.86667h29.45455z" fill="#b0c6dc" stroke="#000000" stroke-width="0"/><path d="M194.72728,334.74657h-29.45455v-0.86667h29.45455z" fill="#b0c6dc" stroke="#000000" stroke-width="0"/><text transform="translate(173.115,326.6443) scale(0.5,0.5)" font-size="40" xml:space="preserve" fill="#ffffff" stroke="none" stroke-width="1" font-family="&quot;03UI&quot;, Sans Serif" font-weight="normal" text-anchor="start"><tspan x="0" dy="0">3</tspan></text></g></g></svg>