<svg version="1.1" xmlns="http://www.w3.org/2000/svg" xmlns:xlink="http://www.w3.org/1999/xlink" width="36" height="36.06664" viewBox="0,0,36,36.06664"><g transform="translate(-162,-301.96668)"><g stroke-width="0" stroke-miterlimit="10"><path d="M162,338.0193v-36h36v36z" fill="#b39569" stroke="none"/><path d="M165.27273,334.74657v-29.45455h29.45455v29.45455z" fill="#c7a571" stroke="none"/><path d="M162,337.96667l3.26842,-3.18182h29.52632l3.20526,3.18182z" fill="#8f7b5e" stroke="#000000"/><path d="M162.06667,302.03333l3.18182,3.26842v29.52631l-3.18182,3.20526z" fill="#c2ad8d" stroke="#000000"/><path d="M198,337.96667l-3.18182,-3.26842v-29.52631l3.18182,-3.20526z" fill="#a8916f" stroke="#000000"/><path d="M165.27273,305.29203h3.18182l-3.18182,3.18182z" fill="#dbcaaf" stroke="#000000"/><path d="M194.72727,305.29203v3.18182l-3.18182,-3.18182z" fill="#dbcaaf" stroke="#000000"/><path d="M194.72727,334.74657h-3.18182l3.18182,-3.18182z" fill="#dbcaaf" stroke="#000000"/><path d="M165.27273,334.74657v-3.18182l3.18182,3.18182z" fill="#dbcaaf" stroke="#000000"/><path d="M165.27273,334.74657v-29.45455h0.86667v29.45455z" fill="#dbcaaf" stroke="#000000"/><path d="M193.8606,334.74657v-29.45455h0.86667v29.45455z" fill="#dbcaaf" stroke="#000000"/><path d="M194.72728,306.1587h-29.45455v-0.86667h29.45455z" fill="#dbcaaf" stroke="#000000"/><path d="M194.72728,334.74657h-29.45455v-0.86667h29.45455z" fill="#dbcaaf" stroke="#000000"/></g></g></svg>