<svg version="1.1" xmlns="http://www.w3.org/2000/svg" xmlns:xlink="http://www.w3.org/1999/xlink" width="79.5" height="83.75966" viewBox="0,0,79.5,83.75966"><g transform="translate(-140.2143,-280.28571)"><g stroke-miterlimit="10"><path d="M145.50002,341.54367v-34.58227l17.1067,-17.05888h34.54812l17.20233,16.90518v34.42857l-17.20233,17.52339h-34.42857z" fill="#272828" stroke="#000000" stroke-width="0"/><path d="M140.2143,341.47395v-34.42857h5.28571v34.42857z" fill="#272828" stroke="#000000" stroke-width="0"/><path d="M214.35716,341.33109v-34.42857h5.28571v34.42857z" fill="#272828" stroke="#000000" stroke-width="0"/><path d="M197.07145,289.90252h-34.42857v-5.28571h34.42857z" fill="#272828" stroke="#000000" stroke-width="0"/><path d="M197.07145,364.04538h-34.42856v-5.28572h34.42856z" fill="#272828" stroke="#000000" stroke-width="0"/><path d="M162.60176,289.89301l-17.15236,17.15236l-2.63335,-2.63335l17.15236,-17.15236z" fill="#272828" stroke="#000000" stroke-width="0"/><path d="M214.39698,307.04538l-17.15237,-17.15237l2.63335,-2.63335l17.15237,17.15237z" fill="#272828" stroke="#000000" stroke-width="0"/><path d="M160.11127,361.33109l-17.15237,-17.15237l2.63335,-2.63335l17.15237,17.15237z" fill="#272828" stroke="#000000" stroke-width="0"/><path d="M216.88748,343.89301l-17.15237,17.15236l-2.63335,-2.63335l17.15236,-17.15237z" fill="#272828" stroke="#000000" stroke-width="0"/><path d="M145.57144,337.21259v-34.58227l17.1067,-17.05888h34.54812l17.20233,16.90518v34.42857l-17.20233,17.52339h-34.42857z" fill="#216394" stroke="#000000" stroke-width="0"/><path d="" fill="#31648a" stroke="#000000" stroke-width="0"/><path d="M140.28572,337.14287v-34.42857h5.28571v34.42857z" fill="#112063" stroke="#000000" stroke-width="0"/><path d="M214.42858,337.00001v-34.42857h5.28571v34.42857z" fill="#112063" stroke="#000000" stroke-width="0"/><path d="M197.14287,285.57144h-34.42857v-5.28571h34.42857z" fill="#112063" stroke="#000000" stroke-width="0"/><path d="M197.14287,359.7143h-34.42856v-5.28572h34.42856z" fill="#112063" stroke="#000000" stroke-width="0"/><path d="M162.67317,285.56192l-17.15236,17.15236l-2.63335,-2.63335l17.15236,-17.15236z" fill="#232d5b" stroke="#000000" stroke-width="0"/><path d="M214.4684,302.7143l-17.15237,-17.15237l2.63335,-2.63335l17.15237,17.15237z" fill="#232d5b" stroke="#000000" stroke-width="0"/><path d="M160.18269,357.00001l-17.15237,-17.15237l2.63335,-2.63335l17.15237,17.15237z" fill="#232d5b" stroke="#000000" stroke-width="0"/><path d="M217.10175,339.70479l-17.15237,17.15236l-2.63335,-2.63335l17.15236,-17.15237z" fill="#232d5b" stroke="#000000" stroke-width="0"/><path d="M145.62144,329.05625v-22.14286h68.71429v22.14286z" fill="#92a1e7" stroke="#000000" stroke-width="0"/><path d="M179.90716,329.05625v-16.32467h34.42857v16.32467z" fill="#ccd0e4" stroke="#000000" stroke-width="0"/><path d="M145.62144,323.23805v-16.32467h34.42857v16.32467z" fill="#ccd0e4" stroke="#000000" stroke-width="0"/><path d="M167.95455,285.64286h24.09091v68.71428h-24.09091z" fill="#3f225d" stroke="#000000" stroke-width="0"/><path d="M168.92858,285.64286h22.14286v68.71428h-22.14286z" fill="#7d8edd" stroke="#000000" stroke-width="0"/><path d="M151.7143,334.14146c0,-10.00417 0,-22.62712 0,-28.41199c0,-5.93659 8.10528,-14.01518 14.05446,-14.01518c5.78525,0 18.39195,0 28.38393,0c7.87953,0 14.13304,7.99293 14.13304,13.8889c0,5.74204 0,18.2773 0,28.28571c0,8.00706 -6.25567,14.39681 -14.13304,14.39681c-9.95703,0 -22.50506,0 -28.28571,0c-5.98061,0 -14.15268,-6.25858 -14.15268,-14.14426z" fill="#244f6f" stroke="#000000" stroke-width="0"/><path d="M197.14287,359.7143h-34.42856v-1.46219h34.42856z" fill="#0f1637" stroke="#000000" stroke-width="0"/><path d="M197.14287,281.74791h-34.42856v-1.46219h34.42856z" fill="#0f1637" stroke="#000000" stroke-width="0"/><path d="M219.7143,302.57144v34.42856h-1.46219v-34.42856z" fill="#0f1637" stroke="#000000" stroke-width="0"/><path d="M141.74791,302.7143v34.42856h-1.46218v-34.42856z" fill="#0f1637" stroke="#000000" stroke-width="0"/><path d="M160.18269,357.00001l-17.15237,-17.15237l1.03392,-1.03392l17.15237,17.15237z" fill="#2f5459" stroke="#000000" stroke-width="0"/><path d="M216.06783,301.11487l-17.15237,-17.15236l1.03392,-1.03392l17.15237,17.15236z" fill="#2f5459" stroke="#000000" stroke-width="0"/><path d="M142.88745,300.08095l17.15236,-17.15237l1.03392,1.03392l-17.15237,17.15237z" fill="#2f5459" stroke="#000000" stroke-width="0"/><path d="M198.91547,355.82323l17.15237,-17.15237l1.03392,1.03392l-17.15236,17.15236z" fill="#2f5459" stroke="#000000" stroke-width="0"/><path d="M151.69287,317.98482c0,-6.65252 12.66395,-12.04545 28.28571,-12.04545c15.62177,0 28.28571,5.39293 28.28571,12.04545c0,6.65252 -12.66395,12.04545 -28.28571,12.04545c-15.62177,0 -28.28571,-5.39293 -28.28571,-12.04545z" fill="#14476e" stroke="#000000" stroke-width="0"/><path d="M159.97756,297.9838c4.70404,-4.70404 17.47218,0.43733 28.51844,11.48359c11.04626,11.04626 16.18764,23.8144 11.4836,28.51844c-4.70404,4.70404 -17.47218,-0.43734 -28.51844,-11.4836c-11.04626,-11.04626 -16.18764,-23.8144 -11.48359,-28.51844z" fill="#14476e" stroke="#000000" stroke-width="0"/><path d="M180.00001,291.7143c6.65252,0 12.04546,12.66394 12.04546,28.28571c0,15.62177 -5.39294,28.28571 -12.04546,28.28571c-6.65252,0 -12.04545,-12.66394 -12.04545,-28.28571c0,-15.62177 5.39294,-28.28571 12.04545,-28.28571z" fill="#14476e" stroke="#000000" stroke-width="0"/><path d="M199.9796,297.9838c4.70404,4.70404 -0.43733,17.47218 -11.48359,28.51844c-11.04626,11.04626 -23.81441,16.18763 -28.51844,11.48359c-4.70404,-4.70404 0.43733,-17.47218 11.48359,-28.51844c11.04626,-11.04626 23.8144,-16.18763 28.51844,-11.48359z" fill="#14476e" stroke="#000000" stroke-width="0"/><path d="M189.39264,321.29352c-4.47928,2.55491 -10.68588,6.09506 -13.13274,7.49071c-1.99358,1.13711 -4.47417,0.47836 -4.47417,-2.38579c0,-5.03419 0,-12.51051 0,-15.46145c0,-2.38976 2.61551,-3.94307 4.68187,-2.76445c2.46415,1.40551 8.58601,4.89733 12.99878,7.41431c2.83568,1.61743 2.80188,4.06645 -0.07374,5.70666z" fill="#8ec0e6" stroke="#478fc6" stroke-width="2.5"/></g></g></svg>