<svg version="1.1" xmlns="http://www.w3.org/2000/svg" xmlns:xlink="http://www.w3.org/1999/xlink" width="327.57508" height="607.46396" viewBox="0,0,327.57508,607.46396"><g transform="translate(-16.21246,-16.26802)"><g stroke-miterlimit="10"><path d="M17.96246,546.8c0,-131.98765 0,-397.86209 0,-466c0,-31.22081 34.92403,-62.78198 63.13755,-62.78198c36.87733,0 134.20195,0 199,0c35.9842,0 61.93753,30.98874 61.93753,61.78198c0,68.0195 0,336.05299 0,468c0,45.00812 -30.48217,74.18198 -70.93753,74.18198c-61.73611,0 -146.6975,0 -182,0c-30.99015,0 -71.13755,-29.61056 -71.13755,-75.18198z" fill="#252f36" stroke="#8fc1e7" stroke-width="3.5" stroke-linecap="butt"/><text transform="translate(132.09805,59.34239) scale(0.79837,0.79837)" font-size="40" xml:space="preserve" fill="#8fc1e7" stroke="#8fc1e7" stroke-width="1" stroke-linecap="butt" font-family="&quot;03UI&quot;, Sans Serif" font-weight="normal" text-anchor="start"><tspan x="0" dy="0">遊び方</tspan></text><path d="M63.1688,59.17862l-10.63547,-10.63547l10.5312,-10.5312" fill="none" stroke="#8fc1e7" stroke-width="3.5" stroke-linecap="round"/><text transform="translate(50.68358,99.00597) scale(0.43083,0.43083)" font-size="40" xml:space="preserve" fill="#8fc1e7" stroke="none" stroke-width="1" stroke-linecap="butt" font-family="&quot;03UI&quot;, Sans Serif" font-weight="normal" text-anchor="start"><tspan x="0" dy="0">画面下には、三種類のボタンが存</tspan><tspan x="0" dy="48px">在します。</tspan><tspan x="0" dy="48px"> </tspan><tspan x="0" dy="48px"> </tspan><tspan x="0" dy="48px"> </tspan><tspan x="0" dy="48px"> </tspan><tspan x="0" dy="48px"> </tspan><tspan x="0" dy="48px">〇ヒント</tspan><tspan x="0" dy="48px">　ゴールまでの、✰ｘ3を獲得で</tspan><tspan x="0" dy="48px">　きるルートを、その時にタップ</tspan><tspan x="0" dy="48px">　しているルートから外れたとこ</tspan><tspan x="0" dy="48px">　ろから5マス分だけ表示します</tspan><tspan x="0" dy="48px">　。</tspan><tspan x="0" dy="48px">〇ダウンボム</tspan><tspan x="0" dy="48px">　好きなタイルを一定の確率でそ</tspan><tspan x="0" dy="48px">　のタイルの数字を減らします。</tspan><tspan x="0" dy="48px">〇アップボム</tspan><tspan x="0" dy="48px">　好きなタイルを一定の確率でそ</tspan><tspan x="0" dy="48px">　のタイルの数字を増やします。</tspan><tspan x="0" dy="48px"> </tspan><tspan x="0" dy="48px">1つのレベルにつきそれぞれ一回</tspan><tspan x="0" dy="48px">まで使用できます。次のレベルや</tspan><tspan x="0" dy="48px">リトライをすると復活します。</tspan></text><text transform="translate(145.29975,602.6) scale(0.52133,0.5)" font-size="40" xml:space="preserve" fill="#8fc1e7" stroke="none" stroke-width="1" stroke-linecap="butt" font-family="&quot;03UI&quot;, Sans Serif" font-weight="normal" text-anchor="start"><tspan x="0" dy="0">〈 4</tspan></text><path d="M83.11961,177.90088v-20.13165l9.95846,-9.93061h20.11177l10.01413,9.84114v20.04217l-10.01413,10.20103h-20.04217z" fill="#272828" stroke="#000000" stroke-width="0" stroke-linecap="butt"/><path d="M80.04259,177.86032v-20.04217h3.07702v20.04217z" fill="#272828" stroke="#000000" stroke-width="0" stroke-linecap="butt"/><path d="M123.20396,177.77715v-20.04217h3.07701v20.04217z" fill="#272828" stroke="#000000" stroke-width="0" stroke-linecap="butt"/><path d="M113.14129,147.83864h-20.04217v-3.07702h20.04217z" fill="#272828" stroke="#000000" stroke-width="0" stroke-linecap="butt"/><path d="M113.14129,191h-20.04217v-3.07702h20.04217z" fill="#272828" stroke="#000000" stroke-width="0" stroke-linecap="butt"/><path d="M93.07518,147.83309l-9.98504,9.98504l-1.53297,-1.53297l9.98504,-9.98504z" fill="#272828" stroke="#000000" stroke-width="0" stroke-linecap="butt"/><path d="M123.22714,157.81813l-9.98505,-9.98504l1.53298,-1.53297l9.98504,9.98505z" fill="#272828" stroke="#000000" stroke-width="0" stroke-linecap="butt"/><path d="M91.62537,189.41991l-9.98504,-9.98504l1.53297,-1.53297l9.98504,9.98504z" fill="#272828" stroke="#000000" stroke-width="0" stroke-linecap="butt"/><path d="M124.67695,179.26854l-9.98505,9.98504l-1.53297,-1.53297l9.98504,-9.98504z" fill="#272828" stroke="#000000" stroke-width="0" stroke-linecap="butt"/><path d="M83.16119,175.37958v-20.13165l9.95846,-9.93062h20.11177l10.01412,9.84115v20.04217l-10.01412,10.20102h-20.04218z" fill="#216394" stroke="#000000" stroke-width="0" stroke-linecap="butt"/><path d="M80.08417,175.33902v-20.04217h3.07701v20.04217z" fill="#112063" stroke="#000000" stroke-width="0" stroke-linecap="butt"/><path d="M123.24553,175.25583v-20.04217h3.07701v20.04217z" fill="#112063" stroke="#000000" stroke-width="0" stroke-linecap="butt"/><path d="M113.18287,145.31734h-20.04217v-3.07701h20.04217z" fill="#112063" stroke="#000000" stroke-width="0" stroke-linecap="butt"/><path d="M113.18287,188.4787h-20.04216v-3.07702h20.04216z" fill="#112063" stroke="#000000" stroke-width="0" stroke-linecap="butt"/><path d="M93.11675,145.31179l-9.98504,9.98504l-1.53297,-1.53297l9.98504,-9.98504z" fill="#232d5b" stroke="#000000" stroke-width="0" stroke-linecap="butt"/><path d="M123.26871,155.29684l-9.98504,-9.98505l1.53297,-1.53297l9.98504,9.98504z" fill="#232d5b" stroke="#000000" stroke-width="0" stroke-linecap="butt"/><path d="M91.66695,186.89862l-9.98504,-9.98505l1.53297,-1.53297l9.98504,9.98504z" fill="#232d5b" stroke="#000000" stroke-width="0" stroke-linecap="butt"/><path d="M124.80169,176.83041l-9.98504,9.98504l-1.53297,-1.53297l9.98504,-9.98504z" fill="#232d5b" stroke="#000000" stroke-width="0" stroke-linecap="butt"/><path d="M83.1903,170.63147v-12.8902h40.00118v12.8902z" fill="#92a1e7" stroke="#000000" stroke-width="0" stroke-linecap="butt"/><path d="M103.14931,170.63147v-9.50321h20.04217v9.50321z" fill="#ccd0e4" stroke="#000000" stroke-width="0" stroke-linecap="butt"/><path d="M83.1903,167.24447v-9.50321h20.04217v9.50321z" fill="#ccd0e4" stroke="#000000" stroke-width="0" stroke-linecap="butt"/><path d="M96.19124,145.3589h14.02423v40.00118h-14.02423z" fill="#3f225d" stroke="#000000" stroke-width="0" stroke-linecap="butt"/><path d="M96.75826,145.3589h12.89019v40.00118h-12.89019z" fill="#7d8edd" stroke="#000000" stroke-width="0" stroke-linecap="butt"/><path d="M87.13718,173.39181c0,-5.68233 0,-12.85212 0,-16.1379c0,-3.37197 4.60377,-7.96058 7.98289,-7.96058c3.28601,0 10.44656,0 16.12197,0c4.47554,0 8.02751,4.53996 8.02751,7.88884c0,3.26146 0,10.38144 0,16.06618c0,4.54798 -3.5532,8.17733 -8.02751,8.17733c-5.65556,0 -12.7828,0 -16.06618,0c-3.39697,0 -8.03867,-3.55485 -8.03867,-8.03389z" fill="#244f6f" stroke="#14476e" stroke-width="1" stroke-linecap="butt"/><path d="M113.18287,188.47871h-20.04216v-0.85119h20.04216z" fill="#0f1637" stroke="#000000" stroke-width="0" stroke-linecap="butt"/><path d="M113.18287,143.09151h-20.04216v-0.8512h20.04216z" fill="#0f1637" stroke="#000000" stroke-width="0" stroke-linecap="butt"/><path d="M126.32255,155.21365v20.04217h-0.8512v-20.04217z" fill="#0f1637" stroke="#000000" stroke-width="0" stroke-linecap="butt"/><path d="M80.93537,155.29685v20.04217h-0.85119v-20.04217z" fill="#0f1637" stroke="#000000" stroke-width="0" stroke-linecap="butt"/><path d="M91.66695,186.89862l-9.98504,-9.98505l0.60189,-0.60188l9.98504,9.98505z" fill="#2f5459" stroke="#000000" stroke-width="0" stroke-linecap="butt"/><path d="M124.1998,154.36577l-9.98505,-9.98504l0.60189,-0.60188l9.98504,9.98503z" fill="#2f5459" stroke="#000000" stroke-width="0" stroke-linecap="butt"/><path d="M81.59874,153.76387l9.98503,-9.98504l0.60189,0.60188l-9.98504,9.98504z" fill="#2f5459" stroke="#000000" stroke-width="0" stroke-linecap="butt"/><path d="M114.21476,186.21358l9.98504,-9.98504l0.60189,0.60188l-9.98504,9.98504z" fill="#2f5459" stroke="#000000" stroke-width="0" stroke-linecap="butt"/><path d="M94.45813,165.56168c0,-4.81837 3.90607,-8.72445 8.72444,-8.72445c4.81837,0 8.72445,3.90607 8.72445,8.72445c0,4.81837 -3.90607,8.72445 -8.72445,8.72445c-4.81837,0 -8.72444,-3.90607 -8.72444,-8.72445z" fill="none" stroke="#478fc6" stroke-width="3" stroke-linecap="butt"/><path d="M94.45813,165.56169c0,-4.81837 3.90607,-8.72445 8.72444,-8.72445c4.81837,0 8.72445,3.90607 8.72445,8.72445c0,4.81837 -3.90607,8.72444 -8.72445,8.72444c-4.81837,0 -8.72444,-3.90607 -8.72444,-8.72444z" fill="none" stroke="#8ec0e6" stroke-width="1.5" stroke-linecap="butt"/><text transform="translate(99.24959,171.51162) scale(0.40762,0.40762)" font-size="40" xml:space="preserve" fill="#8ec0e6" stroke="#478fc6" stroke-width="1" stroke-linecap="butt" font-family="&quot;03UI&quot;, Sans Serif" font-weight="normal" text-anchor="start"><tspan x="0" dy="0">?</tspan></text><path d="M160.99247,178.3265v-20.13165l9.95846,-9.93061h20.11177l10.01413,9.84114v20.04217l-10.01413,10.20103h-20.04217z" fill="#272828" stroke="#000000" stroke-width="0" stroke-linecap="butt"/><path d="M157.91545,178.28595v-20.04217h3.07702v20.04217z" fill="#272828" stroke="#000000" stroke-width="0" stroke-linecap="butt"/><path d="M201.07682,178.20276v-20.04217h3.07701v20.04217z" fill="#272828" stroke="#000000" stroke-width="0" stroke-linecap="butt"/><path d="M191.01415,148.26427h-20.04217v-3.07702h20.04217z" fill="#272828" stroke="#000000" stroke-width="0" stroke-linecap="butt"/><path d="M191.01415,191.42566h-20.04217v-3.07702h20.04217z" fill="#272828" stroke="#000000" stroke-width="0" stroke-linecap="butt"/><path d="M170.94804,148.25871l-9.98504,9.98504l-1.53297,-1.53297l9.98504,-9.98504z" fill="#272828" stroke="#000000" stroke-width="0" stroke-linecap="butt"/><path d="M201.1,158.24376l-9.98505,-9.98504l1.53298,-1.53297l9.98504,9.98505z" fill="#272828" stroke="#000000" stroke-width="0" stroke-linecap="butt"/><path d="M169.49823,189.84557l-9.98504,-9.98504l1.53297,-1.53297l9.98504,9.98504z" fill="#272828" stroke="#000000" stroke-width="0" stroke-linecap="butt"/><path d="M202.54981,179.69416l-9.98505,9.98504l-1.53297,-1.53297l9.98504,-9.98504z" fill="#272828" stroke="#000000" stroke-width="0" stroke-linecap="butt"/><path d="M161.03405,175.8052v-20.13165l9.95846,-9.93062h20.11177l10.01412,9.84115v20.04217l-10.01412,10.20102h-20.04218z" fill="#216394" stroke="#000000" stroke-width="0" stroke-linecap="butt"/><path d="M157.95703,175.76463v-20.04217h3.07701v20.04217z" fill="#112063" stroke="#000000" stroke-width="0" stroke-linecap="butt"/><path d="M201.11839,175.68144v-20.04217h3.07701v20.04217z" fill="#112063" stroke="#000000" stroke-width="0" stroke-linecap="butt"/><path d="M191.05573,145.74297h-20.04217v-3.07701h20.04217z" fill="#112063" stroke="#000000" stroke-width="0" stroke-linecap="butt"/><path d="M191.05573,188.90437h-20.04216v-3.07702h20.04216z" fill="#112063" stroke="#000000" stroke-width="0" stroke-linecap="butt"/><path d="M170.98961,145.73741l-9.98504,9.98504l-1.53297,-1.53297l9.98504,-9.98504z" fill="#232d5b" stroke="#000000" stroke-width="0" stroke-linecap="butt"/><path d="M201.14157,155.72246l-9.98504,-9.98505l1.53297,-1.53297l9.98504,9.98504z" fill="#232d5b" stroke="#000000" stroke-width="0" stroke-linecap="butt"/><path d="M169.53981,187.32428l-9.98504,-9.98505l1.53297,-1.53297l9.98504,9.98504z" fill="#232d5b" stroke="#000000" stroke-width="0" stroke-linecap="butt"/><path d="M202.67455,177.25603l-9.98504,9.98504l-1.53297,-1.53297l9.98504,-9.98504z" fill="#232d5b" stroke="#000000" stroke-width="0" stroke-linecap="butt"/><path d="M161.06316,171.05709v-12.8902h40.00118v12.8902z" fill="#92a1e7" stroke="#000000" stroke-width="0" stroke-linecap="butt"/><path d="M181.02217,171.05709v-9.50321h20.04217v9.50321z" fill="#ccd0e4" stroke="#000000" stroke-width="0" stroke-linecap="butt"/><path d="M161.06316,167.67009v-9.50321h20.04217v9.50321z" fill="#ccd0e4" stroke="#000000" stroke-width="0" stroke-linecap="butt"/><path d="M174.0641,145.78451h14.02423v40.00118h-14.02423z" fill="#3f225d" stroke="#000000" stroke-width="0" stroke-linecap="butt"/><path d="M174.63112,145.78451h12.89019v40.00118h-12.89019z" fill="#7d8edd" stroke="#000000" stroke-width="0" stroke-linecap="butt"/><path d="M165.01004,173.81744c0,-5.68233 0,-12.85212 0,-16.1379c0,-3.37197 4.60377,-7.96058 7.98289,-7.96058c3.28601,0 10.44656,0 16.12197,0c4.47554,0 8.02751,4.53996 8.02751,7.88884c0,3.26146 0,10.38144 0,16.06618c0,4.54798 -3.5532,8.17733 -8.02751,8.17733c-5.65556,0 -12.7828,0 -16.06618,0c-3.39697,0 -8.03867,-3.55485 -8.03867,-8.03389z" fill="#244f6f" stroke="#14476e" stroke-width="1" stroke-linecap="butt"/><path d="M191.05573,188.90437h-20.04216v-0.85119h20.04216z" fill="#0f1637" stroke="#000000" stroke-width="0" stroke-linecap="butt"/><path d="M191.05573,143.51713h-20.04216v-0.8512h20.04216z" fill="#0f1637" stroke="#000000" stroke-width="0" stroke-linecap="butt"/><path d="M204.19541,155.63927v20.04217h-0.8512v-20.04217z" fill="#0f1637" stroke="#000000" stroke-width="0" stroke-linecap="butt"/><path d="M158.80823,155.72246v20.04217h-0.85119v-20.04217z" fill="#0f1637" stroke="#000000" stroke-width="0" stroke-linecap="butt"/><path d="M169.53981,187.32428l-9.98504,-9.98505l0.60189,-0.60188l9.98504,9.98505z" fill="#2f5459" stroke="#000000" stroke-width="0" stroke-linecap="butt"/><path d="M202.07266,154.7914l-9.98505,-9.98504l0.60189,-0.60188l9.98504,9.98503z" fill="#2f5459" stroke="#000000" stroke-width="0" stroke-linecap="butt"/><path d="M159.4716,154.1895l9.98503,-9.98504l0.60189,0.60188l-9.98504,9.98504z" fill="#2f5459" stroke="#000000" stroke-width="0" stroke-linecap="butt"/><path d="M192.08762,186.63923l9.98504,-9.98504l0.60189,0.60188l-9.98504,9.98504z" fill="#2f5459" stroke="#000000" stroke-width="0" stroke-linecap="butt"/><path d="M191.80509,160.23308c-2.67854,4.43014 -7.76398,12.84112 -9.24449,15.28979c-0.79376,1.31283 -2.39047,1.51718 -3.09852,0.34611c-1.35614,-2.24297 -6.14066,-10.15626 -8.97772,-14.84857c-1.27529,-2.10925 -0.64594,-3.56767 1.6034,-3.56767c5.62439,0 15.86433,0 18.63636,0c1.36277,0 2.09343,1.10578 1.08097,2.78034z" fill="none" stroke="#478fc6" stroke-width="3" stroke-linecap="butt"/><path d="M191.80509,160.23308c-2.67854,4.43014 -7.76398,12.84112 -9.24449,15.28979c-0.79376,1.31283 -2.39047,1.51718 -3.09852,0.34611c-1.35614,-2.24297 -6.14066,-10.15626 -8.97772,-14.84857c-1.27529,-2.10925 -0.64594,-3.56767 1.6034,-3.56767c5.62439,0 15.86433,0 18.63636,0c1.36277,0 2.09343,1.10578 1.08097,2.78034z" fill="none" stroke="#8ec0e6" stroke-width="1.5" stroke-linecap="butt"/><text transform="translate(177.49105,171.01064) scale(0.36719,0.36719)" font-size="40" xml:space="preserve" fill="#8ec0e6" stroke="#478fc6" stroke-width="1" stroke-linecap="butt" font-family="&quot;03UI&quot;, Sans Serif" font-weight="normal" text-anchor="start"><tspan x="0" dy="0">1</tspan></text><path d="M236.61962,178.32646v-20.13165l9.95846,-9.93061h20.11177l10.01413,9.84114v20.04217l-10.01413,10.20103h-20.04217z" fill="#272828" stroke="#000000" stroke-width="0" stroke-linecap="butt"/><path d="M233.5426,178.28591v-20.04217h3.07702v20.04217z" fill="#272828" stroke="#000000" stroke-width="0" stroke-linecap="butt"/><path d="M276.70397,178.20272v-20.04217h3.07701v20.04217z" fill="#272828" stroke="#000000" stroke-width="0" stroke-linecap="butt"/><path d="M266.6413,148.26423h-20.04217v-3.07702h20.04217z" fill="#272828" stroke="#000000" stroke-width="0" stroke-linecap="butt"/><path d="M266.6413,191.42562h-20.04217v-3.07702h20.04217z" fill="#272828" stroke="#000000" stroke-width="0" stroke-linecap="butt"/><path d="M246.57519,148.25867l-9.98504,9.98504l-1.53297,-1.53297l9.98504,-9.98504z" fill="#272828" stroke="#000000" stroke-width="0" stroke-linecap="butt"/><path d="M276.72715,158.24372l-9.98505,-9.98504l1.53298,-1.53297l9.98504,9.98505z" fill="#272828" stroke="#000000" stroke-width="0" stroke-linecap="butt"/><path d="M245.12538,189.84553l-9.98504,-9.98504l1.53297,-1.53297l9.98504,9.98504z" fill="#272828" stroke="#000000" stroke-width="0" stroke-linecap="butt"/><path d="M278.17696,179.69412l-9.98505,9.98504l-1.53297,-1.53297l9.98504,-9.98504z" fill="#272828" stroke="#000000" stroke-width="0" stroke-linecap="butt"/><path d="M236.6612,175.80516v-20.13165l9.95846,-9.93062h20.11177l10.01412,9.84115v20.04217l-10.01412,10.20102h-20.04218z" fill="#216394" stroke="#000000" stroke-width="0" stroke-linecap="butt"/><path d="M233.58418,175.76459v-20.04217h3.07701v20.04217z" fill="#112063" stroke="#000000" stroke-width="0" stroke-linecap="butt"/><path d="M276.74554,175.6814v-20.04217h3.07701v20.04217z" fill="#112063" stroke="#000000" stroke-width="0" stroke-linecap="butt"/><path d="M266.68288,145.74293h-20.04217v-3.07701h20.04217z" fill="#112063" stroke="#000000" stroke-width="0" stroke-linecap="butt"/><path d="M266.68288,188.90432h-20.04216v-3.07702h20.04216z" fill="#112063" stroke="#000000" stroke-width="0" stroke-linecap="butt"/><path d="M246.61676,145.73737l-9.98504,9.98504l-1.53297,-1.53297l9.98504,-9.98504z" fill="#232d5b" stroke="#000000" stroke-width="0" stroke-linecap="butt"/><path d="M276.76872,155.72242l-9.98504,-9.98505l1.53297,-1.53297l9.98504,9.98504z" fill="#232d5b" stroke="#000000" stroke-width="0" stroke-linecap="butt"/><path d="M245.16696,187.32424l-9.98504,-9.98505l1.53297,-1.53297l9.98504,9.98504z" fill="#232d5b" stroke="#000000" stroke-width="0" stroke-linecap="butt"/><path d="M278.3017,177.25599l-9.98504,9.98504l-1.53297,-1.53297l9.98504,-9.98504z" fill="#232d5b" stroke="#000000" stroke-width="0" stroke-linecap="butt"/><path d="M236.69031,171.05705v-12.8902h40.00118v12.8902z" fill="#92a1e7" stroke="#000000" stroke-width="0" stroke-linecap="butt"/><path d="M256.64932,171.05705v-9.50321h20.04217v9.50321z" fill="#ccd0e4" stroke="#000000" stroke-width="0" stroke-linecap="butt"/><path d="M236.69031,167.67005v-9.50321h20.04217v9.50321z" fill="#ccd0e4" stroke="#000000" stroke-width="0" stroke-linecap="butt"/><path d="M249.69125,145.78447h14.02423v40.00118h-14.02423z" fill="#3f225d" stroke="#000000" stroke-width="0" stroke-linecap="butt"/><path d="M250.25827,145.78447h12.89019v40.00118h-12.89019z" fill="#7d8edd" stroke="#000000" stroke-width="0" stroke-linecap="butt"/><path d="M240.63719,173.81739c0,-5.68233 0,-12.85212 0,-16.1379c0,-3.37197 4.60377,-7.96058 7.98289,-7.96058c3.28601,0 10.44656,0 16.12197,0c4.47554,0 8.02751,4.53996 8.02751,7.88884c0,3.26146 0,10.38144 0,16.06618c0,4.54798 -3.5532,8.17733 -8.02751,8.17733c-5.65556,0 -12.7828,0 -16.06618,0c-3.39697,0 -8.03867,-3.55485 -8.03867,-8.03389z" fill="#244f6f" stroke="#14476e" stroke-width="1" stroke-linecap="butt"/><path d="M266.68288,188.90432h-20.04216v-0.85119h20.04216z" fill="#0f1637" stroke="#000000" stroke-width="0" stroke-linecap="butt"/><path d="M266.68288,143.51709h-20.04216v-0.8512h20.04216z" fill="#0f1637" stroke="#000000" stroke-width="0" stroke-linecap="butt"/><path d="M279.82256,155.63923v20.04217h-0.8512v-20.04217z" fill="#0f1637" stroke="#000000" stroke-width="0" stroke-linecap="butt"/><path d="M234.43538,155.72242v20.04217h-0.85119v-20.04217z" fill="#0f1637" stroke="#000000" stroke-width="0" stroke-linecap="butt"/><path d="M245.16696,187.32424l-9.98504,-9.98505l0.60189,-0.60188l9.98504,9.98505z" fill="#2f5459" stroke="#000000" stroke-width="0" stroke-linecap="butt"/><path d="M277.69981,154.79136l-9.98505,-9.98504l0.60189,-0.60188l9.98504,9.98503z" fill="#2f5459" stroke="#000000" stroke-width="0" stroke-linecap="butt"/><path d="M235.09875,154.18946l9.98503,-9.98504l0.60189,0.60188l-9.98504,9.98504z" fill="#2f5459" stroke="#000000" stroke-width="0" stroke-linecap="butt"/><path d="M267.71477,186.63919l9.98504,-9.98504l0.60189,0.60188l-9.98504,9.98504z" fill="#2f5459" stroke="#000000" stroke-width="0" stroke-linecap="butt"/><path d="M245.7425,171.19706c2.67854,-4.43014 7.76398,-12.84112 9.24449,-15.28979c0.79376,-1.31283 2.39047,-1.51718 3.09852,-0.34611c1.35614,2.24297 6.14066,10.15626 8.97772,14.84857c1.27529,2.10925 0.64594,3.56767 -1.6034,3.56767c-5.62439,0 -15.86433,0 -18.63636,0c-1.36277,0 -2.09343,-1.10578 -1.08097,-2.78034z" fill="none" stroke="#478fc6" stroke-width="3" stroke-linecap="butt"/><path d="M245.76626,171.19173c2.67854,-4.43014 7.76398,-12.84112 9.24449,-15.28979c0.79376,-1.31283 2.39047,-1.51718 3.09852,-0.34611c1.35614,2.24297 6.14066,10.15626 8.97772,14.84857c1.27529,2.10925 0.64594,3.56767 -1.6034,3.56767c-5.62439,0 -15.86433,0 -18.63636,0c-1.36277,0 -2.09343,-1.10578 -1.08097,-2.78034z" fill="none" stroke="#8ec0e6" stroke-width="1.5" stroke-linecap="butt"/><text transform="translate(252.11474,171.45198) scale(0.36719,0.36719)" font-size="40" xml:space="preserve" fill="#8ec0e6" stroke="#478fc6" stroke-width="1" stroke-linecap="butt" font-family="&quot;03UI&quot;, Sans Serif" font-weight="normal" text-anchor="start"><tspan x="0" dy="0">9</tspan></text><text transform="translate(79.4784,203.64657) scale(0.39403,0.39403)" font-size="40" xml:space="preserve" fill="#8fc1e7" stroke="none" stroke-width="1" stroke-linecap="butt" font-family="&quot;03UI&quot;, Sans Serif" font-weight="normal" text-anchor="start"><tspan x="0" dy="0">ヒント</tspan></text><text transform="translate(150.59006,204.07223) scale(0.30403,0.39403)" font-size="40" xml:space="preserve" fill="#8fc1e7" stroke="none" stroke-width="1" stroke-linecap="butt" font-family="&quot;03UI&quot;, Sans Serif" font-weight="normal" text-anchor="start"><tspan x="0" dy="0">ダウンボム</tspan></text><text transform="translate(226.21722,204.07219) scale(0.30403,0.39403)" font-size="40" xml:space="preserve" fill="#8fc1e7" stroke="none" stroke-width="1" stroke-linecap="butt" font-family="&quot;03UI&quot;, Sans Serif" font-weight="normal" text-anchor="start"><tspan x="0" dy="0">アップボム</tspan></text></g></g></svg>