<svg version="1.1" xmlns="http://www.w3.org/2000/svg" xmlns:xlink="http://www.w3.org/1999/xlink" width="50.7001" height="50.70013" viewBox="0,0,50.7001,50.70013"><defs><radialGradient cx="180.00005" cy="320.00001" r="13.36667" gradientUnits="userSpaceOnUse" id="color-1"><stop offset="0" stop-color="#ebf5f5" stop-opacity="0"/><stop offset="1" stop-color="#ebf5f5" stop-opacity="0.15686"/></radialGradient></defs><g transform="translate(-154.64995,-294.64994)"><g stroke-miterlimit="10"><path d="M165.21427,320.00001c0,-8.16593 6.61979,-14.78571 14.78572,-14.78571c8.16592,0 14.78572,6.61979 14.78572,14.78571c0,8.16593 -6.61979,14.78571 -14.78572,14.78571c-8.16592,0 -14.78572,-6.61979 -14.78572,-14.78571z" fill="none" stroke-opacity="0.52157" stroke="#ebf6f6" stroke-width="3"/><path d="M165.21427,320.00001c0,-8.16593 6.61979,-14.78571 14.78572,-14.78571c8.16592,0 14.78572,6.61979 14.78572,14.78571c0,8.16593 -6.61979,14.78571 -14.78572,14.78571c-8.16592,0 -14.78572,-6.61979 -14.78572,-14.78571z" fill="none" stroke-opacity="0.85098" stroke="#dee0e0" stroke-width="2"/><path d="M165.21428,320.00001c0,-8.16592 6.61979,-14.78571 14.78571,-14.78571c8.16592,0 14.78571,6.61979 14.78571,14.78571c0,8.16592 -6.61979,14.78571 -14.78571,14.78571c-8.16592,0 -14.78571,-6.61979 -14.78571,-14.78571z" fill="none" stroke="#b0eede" stroke-width="1"/><path d="M166.63333,320.00001c0,-7.38221 5.98446,-13.36667 13.36667,-13.36667c7.38221,0 13.36667,5.98446 13.36667,13.36667c0,7.38221 -5.98446,13.36667 -13.36667,13.36667c-7.38221,0 -13.36667,-5.98446 -13.36667,-13.36667z" fill="url(#color-1)" stroke="none" stroke-width="0"/><path d="M158.60005,319.99995c0,-11.819 9.58093,-21.4 21.4,-21.4c11.819,0 21.4,9.58093 21.4,21.4c0,11.819 -9.58093,21.4 -21.4,21.4c-11.819,0 -21.4,-9.58093 -21.4,-21.4z" fill="none" stroke-opacity="0.30196" stroke="#f0fcfc" stroke-width="0.5"/><path d="M154.89995,319.99999c0,-13.86245 11.2376,-25.10005 25.10005,-25.10005c13.86245,0 25.10005,11.2376 25.10005,25.10005c0,13.86245 -11.2376,25.10008 -25.10005,25.10008c-13.86245,0 -25.10005,-11.2376 -25.10005,-25.10008z" fill="none" stroke-opacity="0.10196" stroke="#60eb9a" stroke-width="0.5"/></g></g></svg>